<svg xmlns="http://www.w3.org/2000/svg" xmlns:xlink="http://www.w3.org/1999/xlink" xmlns:lucid="lucid" width="1461.75" height="1956.87"><g transform="translate(-365.40738435274125 1480.8702376964266)" lucid:page-tab-id="0_0"><path d="M0-1500h2000V500H0z" fill="#fff"/><path d="M761.63-1473.87a6 6 0 0 1 6-6h396a6 6 0 0 1 6 6v234a6 6 0 0 1-6 6h-396a6 6 0 0 1-6-6z" stroke="#6f7681" stroke-width="2" fill="#fff"/><use xlink:href="#a" transform="matrix(1,0,0,1,773.6253934986,-1467.8702376964266) translate(86.37717013888887 30.138888888888893)"/><path d="M826.15-1391.87a6 6 0 0 1 6-6h228a6 6 0 0 1 6 6v152a6 6 0 0 1-6 6h-228a6 6 0 0 1-6-6z" stroke="#6f7681" stroke-width="2" fill-opacity="0"/><use xlink:href="#b" transform="matrix(1,0,0,1,838.1489202019138,-1385.8702376964266) translate(70.66059027777777 60.76388888888889)"/><use xlink:href="#c" transform="matrix(1,0,0,1,838.1489202019138,-1385.8702376964266) translate(30.70833333333333 105.93576388888889)"/><path d="M1031.75-1076.75a6 6 0 0 1 6-6h404a6 6 0 0 1 6 6v234a6 6 0 0 1-6 6h-404a6 6 0 0 1-6-6z" stroke="#6f7681" stroke-width="2" fill="#fff"/><use xlink:href="#d" transform="matrix(1,0,0,1,1043.7500000000007,-1070.75) translate(99.65125868055556 30.138888888888893)"/><use xlink:href="#e" transform="matrix(1,0,0,1,1043.7500000000007,-1070.75) translate(254.20421006944446 30.138888888888893)"/><use xlink:href="#f" transform="matrix(1,0,0,1,1043.7500000000007,-1070.75) translate(63.36762152777777 75.3107638888889)"/><path d="M1031.75-950.75a6 6 0 0 1 6-6h200a6 6 0 0 1 6 6v108a6 6 0 0 1-6 6h-200a6 6 0 0 1-6-6z" stroke="#6f7681" stroke-width="2" fill-opacity="0"/><use xlink:href="#g" transform="matrix(1,0,0,1,1043.7500000000007,-944.75) translate(33.38042534722223 36.13888888888889)"/><use xlink:href="#h" transform="matrix(1,0,0,1,1043.7500000000007,-944.75) translate(44.87239583333333 81.3107638888889)"/><path d="M366.4-719.25a6 6 0 0 1 6-6h1447.76a6 6 0 0 1 6 6V469a6 6 0 0 1-6 6H372.4a6 6 0 0 1-6-6z" stroke="#4c535d" stroke-width="2" fill="#fff"/><use xlink:href="#i" transform="matrix(1,0,0,1,378.40738435274125,-713.2500000000007) translate(529.1154513888889 30.138888888888893)"/><use xlink:href="#j" transform="matrix(1,0,0,1,378.40738435274125,-713.2500000000007) translate(709.7209201388889 30.138888888888893)"/><use xlink:href="#k" transform="matrix(1,0,0,1,378.40738435274125,-713.2500000000007) translate(754.7621527777778 30.138888888888893)"/><path d="M520.54-66.28a6 6 0 0 1 6-6h344a6 6 0 0 1 6 6v233a6 6 0 0 1-6 6h-344a6 6 0 0 1-6-6z" stroke="#979ea8" stroke-width="2" fill="#fff"/><use xlink:href="#l" transform="matrix(1,0,0,1,532.5372907924474,-60.27757496099764) translate(93.67578125 30.138888888888893)"/><use xlink:href="#m" transform="matrix(1,0,0,1,532.5372907924474,-60.27757496099764) translate(180.44661458333334 30.138888888888893)"/><path d="M692.54 15.72a6 6 0 0 1 6-6h172a6 6 0 0 1 6 6v151a6 6 0 0 1-6 6h-172a6 6 0 0 1-6-6z" stroke="#6f7681" stroke-width="2" fill="#fff"/><use xlink:href="#n" transform="matrix(1,0,0,1,704.5372907924474,21.72242503900236) translate(45.22786458333333 60.76388888888889)"/><use xlink:href="#o" transform="matrix(1,0,0,1,704.5372907924474,21.72242503900236) translate(19.83615451388887 105.93576388888889)"/><path d="M746.4-640.38a6 6 0 0 1 6-6h344a6 6 0 0 1 6 6v233a6 6 0 0 1-6 6h-344a6 6 0 0 1-6-6z" stroke="#6f7681" stroke-width="2" fill="#fff"/><use xlink:href="#p" transform="matrix(1,0,0,1,758.4073843527412,-634.3750000000002) translate(55.86545138888887 30.138888888888893)"/><path d="M913.57-556.47a6 6 0 0 1 6-6h176.84a6 6 0 0 1 6 6v149.1a6 6 0 0 1-6 6H919.58a6 6 0 0 1-6-6z" stroke="#6f7681" stroke-width="2" fill="#fff"/><use xlink:href="#q" transform="matrix(1,0,0,1,925.5678358873334,-550.4645484654084) translate(29.764539930555557 81.88888888888889)"/><path d="M1265.5-151.57a6 6 0 0 1 6-6h418.13a6 6 0 0 1 6 6V469a6 6 0 0 1-6 6H1271.5a6 6 0 0 1-6-6z" stroke="#6f7681" stroke-width="2" fill="#fff"/><use xlink:href="#r" transform="matrix(1,0,0,1,1277.514314849518,-145.56935135746983) translate(133.3784722222222 30.138888888888893)"/><use xlink:href="#m" transform="matrix(1,0,0,1,1277.514314849518,-145.56935135746983) translate(215.74392361111111 30.138888888888893)"/><path d="M1381.44-66.28a6 6 0 0 1 6-6h213.7a6 6 0 0 1 6 6v178.8a6 6 0 0 1-6 6h-213.7a6 6 0 0 1-6-6z" stroke="#6f7681" stroke-width="2" fill="#fff"/><use xlink:href="#s" transform="matrix(1,0,0,1,1393.4388127622665,-60.27757496099764) translate(57.037326388888886 92.76388888888889)"/><path d="M1265.5 253a6 6 0 0 1 6-6h299.3a6 6 0 0 1 6 6v216a6 6 0 0 1-6 6h-299.3a6 6 0 0 1-6-6z" stroke="#6f7681" stroke-width="2" fill="#fff"/><use xlink:href="#t" transform="matrix(1,0,0,1,1277.514314849518,258.9999999999998) translate(18.188368055555543 113.01388888888889)"/><use xlink:href="#u" transform="matrix(1,0,0,1,1277.514314849518,258.9999999999998) translate(125.74045138888889 113.01388888888889)"/><path d="M946.15-1232.37V-904a6 6 0 0 0 6 6h62.22" stroke="#000" fill="none"/><path d="M946.62-1232.36h-.95v-.5h.95z" stroke="#000" stroke-width=".05"/><path d="M1029.13-898l-14.26 4.63v-9.27z" stroke="#000"/><path d="M1137.75-835.25v347.33a6 6 0 0 1-6 6h-11.96" stroke="#000" fill="none"/><path d="M1138.22-835.24h-.94v-.5h.94z" stroke="#000" stroke-width=".05"/><path d="M1105.03-481.92l14.26-4.63v9.26z" stroke="#000"/><path d="M1008-399.88v485.1a6 6 0 0 1-6 6H893.9" stroke="#000" fill="none"/><path d="M1008.46-399.86h-.95v-.5h.96z" stroke="#000" stroke-width=".05"/><path d="M879.15 91.22l14.27-4.63v9.26z" stroke="#000"/><path d="M1008-399.88v88a6 6 0 0 0 6 6h320.44a6 6 0 0 1 6 6v317a6 6 0 0 0 6 6h17.62" stroke="#000" fill="none"/><path d="M1008.46-399.86h-.95v-.5h.96z" stroke="#000" stroke-width=".05"/><path d="M1378.82 23.12l-14.26 4.63v-9.27z" stroke="#000"/><path d="M784.54 174.22v33.5a6 6 0 0 0 6 6h543.9a6 6 0 0 0 6-6V29.12a6 6 0 0 1 6-6h17.62" stroke="#3a414a" fill="none"/><path d="M785 174.24h-.94v-.52h.95z" stroke="#3a414a" stroke-width=".05" fill="#3a414a"/><path d="M1378.82 23.12l-14.26 4.63v-9.27z" stroke="#3a414a" fill="#3a414a"/><path d="M1379.94 23.12h-33.5a6 6 0 0 0-6 6v178.6a6 6 0 0 1-6 6h-543.9a6 6 0 0 1-6-6v-17.6" stroke="#3a414a" fill="none"/><path d="M1380.44 23.6h-.5v-.96h.5z" stroke="#3a414a" stroke-width=".05" fill="#3a414a"/><path d="M784.54 175.34l4.63 14.27h-9.27z" stroke="#3a414a" fill="#3a414a"/><path d="M1494.28 120.02v56.74a6 6 0 0 1-6 6h-61.12a6 6 0 0 0-6 6v40.86" stroke="#000" fill="none"/><path d="M1494.76 120.03h-.95v-.52l.96.02z" stroke="#000" stroke-width=".05"/><path d="M1421.16 244.38l-4.64-14.26h9.27z" stroke="#000"/><defs><path d="M440-1490V0H135v-1490h305" id="v"/><path d="M428-647V0H128v-1118h283l4 231c63-156 176-245 348-245 232 0 384 159 384 421V0H847v-659c0-139-76-222-202-222-128 0-217 86-217 234" id="w"/><path d="M750-1118v229H516V0H217v-889H20v-229h197v-86c0-238 156-356 363-356 94 0 178 20 215 31l-54 226c-25-7-61-15-100-15-123-3-131 84-125 200h234" id="x"/><path d="M128 0v-1118h290v195h12c54-169 184-238 367-200v268c-27-8-86-15-130-15-138 0-239 95-239 234V0H128" id="y"/><path d="M440 22C227 22 68-92 68-313c0-250 202-322 422-343 195-21 271-24 271-105 0-95-63-149-175-149-116 0-187 57-211 129l-275-46c57-194 237-305 487-305 240 0 474 108 474 379V0H777v-155h-10C713-51 605 22 440 22zm85-211c140 0 238-93 238-211v-121c-37 26-156 42-222 51-111 16-185 59-185 149 0 87 70 132 169 132" id="z"/><path d="M633 22C291 22 81-200 81-553c0-345 210-579 537-579 292 0 525 185 525 567v84H378c7 183 109 277 260 277 105 0 184-46 216-132l272 51C1071-99 893 22 633 22zM380-669h474c-15-146-94-237-233-237-143 0-229 99-241 237" id="A"/><path d="M572 22C302 22 117-98 78-306l279-48c29 105 101 156 224 156 114 0 185-48 185-115 0-118-228-130-337-155-215-49-322-150-322-317 0-215 187-347 470-347 265 0 424 116 466 298l-266 47c-24-76-87-130-196-130-98 0-174 46-174 113 0 56 38 95 144 117l201 40c216 44 320 143 320 302 0 220-207 367-500 367" id="B"/><path d="M683-1118v229H474v562c0 71 29 104 102 104 23 0 73-7 95-13l43 225C647 9 580 16 520 16 296 16 174-96 174-301v-588H20v-229h154v-266h300v266h209" id="C"/><path d="M513 14c-232 0-385-159-385-421v-711h300v659c0 139 76 222 202 222 127 0 217-86 217-234v-647h301V0H864l-4-232C797-74 683 14 513 14" id="D"/><g id="a"><use transform="matrix(0.015190972222222224,0,0,0.015190972222222224,0,0)" xlink:href="#v"/><use transform="matrix(0.015190972222222224,0,0,0.015190972222222224,8.734809027777779,0)" xlink:href="#w"/><use transform="matrix(0.015190972222222224,0,0,0.015190972222222224,28.103298611111114,0)" xlink:href="#x"/><use transform="matrix(0.015190972222222224,0,0,0.015190972222222224,40.48394097222223,0)" xlink:href="#y"/><use transform="matrix(0.015190972222222224,0,0,0.015190972222222224,52.72786458333334,0)" xlink:href="#z"/><use transform="matrix(0.015190972222222224,0,0,0.015190972222222224,70.78993055555557,0)" xlink:href="#A"/><use transform="matrix(0.015190972222222224,0,0,0.015190972222222224,89.32291666666669,0)" xlink:href="#B"/><use transform="matrix(0.015190972222222224,0,0,0.015190972222222224,106.74696180555557,0)" xlink:href="#C"/><use transform="matrix(0.015190972222222224,0,0,0.015190972222222224,118.14019097222224,0)" xlink:href="#y"/><use transform="matrix(0.015190972222222224,0,0,0.015190972222222224,130.80946180555557,0)" xlink:href="#D"/><use transform="matrix(0.015190972222222224,0,0,0.015190972222222224,150.1779513888889,0)" xlink:href="#C"/><use transform="matrix(0.015190972222222224,0,0,0.015190972222222224,161.57118055555557,0)" xlink:href="#D"/><use transform="matrix(0.015190972222222224,0,0,0.015190972222222224,180.9396701388889,0)" xlink:href="#y"/><use transform="matrix(0.015190972222222224,0,0,0.015190972222222224,193.18359375000003,0)" xlink:href="#z"/></g><path d="M49 0l509-1490h400L1480 0h-339l-115-346H497L386 0H49zm524-585h374c-75-213-124-402-192-666-66 268-110 453-182 666" id="E"/><path d="M659 0H135v-1490h529c448 0 721 280 721 744 0 466-273 746-726 746zM440-263h204c287 0 437-148 437-483 0-333-150-481-435-481H440v964" id="F"/><path d="M135 0v-1490h468l242 684c30 94 76 293 111 455 34-161 80-360 110-455l238-684h470V0h-307c0-447-3-765 11-1227-122 503-246 788-395 1227H826C676-435 552-717 427-1215c15 453 11 775 11 1215H135" id="G"/><g id="b"><use transform="matrix(0.015190972222222224,0,0,0.015190972222222224,0,0)" xlink:href="#E"/><use transform="matrix(0.015190972222222224,0,0,0.015190972222222224,23.22699652777778,0)" xlink:href="#F"/><use transform="matrix(0.015190972222222224,0,0,0.015190972222222224,45.69444444444444,0)" xlink:href="#G"/></g><path d="M135 0v-1490h581c339 0 533 210 533 503 0 295-197 500-540 500H440V0H135zm305-733h220c186 0 274-104 274-254s-88-251-275-251H440v505" id="H"/><path d="M628 22C291 22 81-210 81-554c0-346 210-578 547-578 336 0 547 232 547 578 0 344-211 576-547 576zm0-236c160 0 242-146 242-341 0-197-82-341-242-341S387-753 387-555c0 195 81 341 241 341" id="I"/><path d="M628 22C291 22 81-210 81-554c0-346 210-578 547-578 265 0 455 142 497 372l-279 52c-25-116-99-188-215-188-160 0-244 139-244 341 0 200 84 341 244 341 116 0 193-74 217-195l279 51C1085-123 896 22 628 22" id="J"/><g id="c"><use transform="matrix(0.015190972222222224,0,0,0.015190972222222224,0,0)" xlink:href="#H"/><use transform="matrix(0.015190972222222224,0,0,0.015190972222222224,20.15842013888889,0)" xlink:href="#y"/><use transform="matrix(0.015190972222222224,0,0,0.015190972222222224,32.068142361111114,0)" xlink:href="#I"/><use transform="matrix(0.015190972222222224,0,0,0.015190972222222224,51.14800347222223,0)" xlink:href="#J"/><use transform="matrix(0.015190972222222224,0,0,0.015190972222222224,69.453125,0)" xlink:href="#A"/><use transform="matrix(0.015190972222222224,0,0,0.015190972222222224,87.98611111111111,0)" xlink:href="#B"/><use transform="matrix(0.015190972222222224,0,0,0.015190972222222224,105.41015625,0)" xlink:href="#B"/><use transform="matrix(0.015190972222222224,0,0,0.015190972222222224,122.83420138888889,0)" xlink:href="#I"/><use transform="matrix(0.015190972222222224,0,0,0.015190972222222224,141.9140625,0)" xlink:href="#y"/></g><path d="M128 0v-1118h278l12 217c60-163 185-234 319-234 143 0 236 81 288 251 63-172 205-251 359-251 205 0 357 138 357 381V0h-301v-697c0-126-76-187-177-187-114 0-184 79-184 196V0H789v-705c0-109-72-179-174-179-106 0-187 74-187 208V0H128" id="K"/><path d="M754 19C571 19 479-89 437-179h-14V0H128v-1490h300v560h9c41-89 129-202 319-202 248 0 453 193 453 575 0 372-197 576-455 576zm-92-241c156 0 240-139 240-336 0-196-83-334-240-334-154 0-241 131-241 334 0 202 88 336 241 336" id="L"/><path d="M128 0v-1118h300V0H128zm150-1264c-91 0-165-68-165-154 0-85 74-154 165-154 90 0 165 69 165 154 0 86-75 154-165 154" id="M"/><g id="d"><use transform="matrix(0.015190972222222224,0,0,0.015190972222222224,0,0)" xlink:href="#E"/><use transform="matrix(0.015190972222222224,0,0,0.015190972222222224,23.22699652777778,0)" xlink:href="#K"/><use transform="matrix(0.015190972222222224,0,0,0.015190972222222224,51.618923611111114,0)" xlink:href="#L"/><use transform="matrix(0.015190972222222224,0,0,0.015190972222222224,71.23046875,0)" xlink:href="#M"/><use transform="matrix(0.015190972222222224,0,0,0.015190972222222224,79.66145833333333,0)" xlink:href="#A"/><use transform="matrix(0.015190972222222224,0,0,0.015190972222222224,98.19444444444444,0)" xlink:href="#w"/><use transform="matrix(0.015190972222222224,0,0,0.015190972222222224,117.56293402777777,0)" xlink:href="#C"/><use transform="matrix(0.015190972222222224,0,0,0.015190972222222224,128.65234375,0)" xlink:href="#A"/></g><path d="M537 19C279 19 81-185 81-557c0-382 206-575 454-575 190 0 278 113 318 202h10v-560h300V0H868v-179h-15C812-89 719 19 537 19zm92-241c153 0 240-134 240-336 0-203-86-334-240-334-158 0-240 138-240 334 0 197 84 336 240 336" id="N"/><g id="e"><use transform="matrix(0.015190972222222224,0,0,0.015190972222222224,0,0)" xlink:href="#N"/><use transform="matrix(0.015190972222222224,0,0,0.015190972222222224,19.61154513888889,0)" xlink:href="#A"/></g><path d="M443 0L31-1118h319c90 293 199 572 268 885 66-313 175-593 264-885h315L784 0H443" id="O"/><path d="M428-1490V0H128v-1490h300" id="P"/><g id="f"><use transform="matrix(0.015190972222222224,0,0,0.015190972222222224,0,0)" xlink:href="#F"/><use transform="matrix(0.015190972222222224,0,0,0.015190972222222224,22.467447916666668,0)" xlink:href="#A"/><use transform="matrix(0.015190972222222224,0,0,0.015190972222222224,41.000434027777786,0)" xlink:href="#B"/><use transform="matrix(0.015190972222222224,0,0,0.015190972222222224,58.42447916666667,0)" xlink:href="#A"/><use transform="matrix(0.015190972222222224,0,0,0.015190972222222224,76.95746527777779,0)" xlink:href="#w"/><use transform="matrix(0.015190972222222224,0,0,0.015190972222222224,95.79427083333334,0)" xlink:href="#O"/><use transform="matrix(0.015190972222222224,0,0,0.015190972222222224,113.88671875,0)" xlink:href="#I"/><use transform="matrix(0.015190972222222224,0,0,0.015190972222222224,132.96657986111111,0)" xlink:href="#P"/><use transform="matrix(0.015190972222222224,0,0,0.015190972222222224,141.71657986111111,0)" xlink:href="#O"/><use transform="matrix(0.015190972222222224,0,0,0.015190972222222224,160.37109375,0)" xlink:href="#M"/><use transform="matrix(0.015190972222222224,0,0,0.015190972222222224,168.80208333333334,0)" xlink:href="#K"/><use transform="matrix(0.015190972222222224,0,0,0.015190972222222224,197.19401041666669,0)" xlink:href="#A"/><use transform="matrix(0.015190972222222224,0,0,0.015190972222222224,215.7269965277778,0)" xlink:href="#w"/><use transform="matrix(0.015190972222222224,0,0,0.015190972222222224,235.09548611111114,0)" xlink:href="#C"/><use transform="matrix(0.015190972222222224,0,0,0.015190972222222224,246.18489583333334,0)" xlink:href="#I"/></g><g id="g"><use transform="matrix(0.015190972222222224,0,0,0.015190972222222224,0,0)" xlink:href="#E"/><use transform="matrix(0.015190972222222224,0,0,0.015190972222222224,23.22699652777778,0)" xlink:href="#w"/><use transform="matrix(0.015190972222222224,0,0,0.015190972222222224,42.595486111111114,0)" xlink:href="#N"/><use transform="matrix(0.015190972222222224,0,0,0.015190972222222224,62.20703125,0)" xlink:href="#y"/><use transform="matrix(0.015190972222222224,0,0,0.015190972222222224,74.11675347222221,0)" xlink:href="#I"/><use transform="matrix(0.015190972222222224,0,0,0.015190972222222224,93.19661458333333,0)" xlink:href="#M"/><use transform="matrix(0.015190972222222224,0,0,0.015190972222222224,101.62760416666666,0)" xlink:href="#N"/></g><path d="M681 22C323 22 94-145 85-462h297c10 151 131 226 296 226 163 0 271-77 271-190 0-102-95-149-257-189l-164-41c-252-61-403-188-403-405 0-269 236-449 560-449 330 0 546 183 551 445H941c-11-119-106-188-259-188-156 0-244 72-244 172-3 156 226 185 373 221 250 61 445 186 445 436 0 271-213 446-575 446" id="Q"/><g id="h"><use transform="matrix(0.015190972222222224,0,0,0.015190972222222224,0,0)" xlink:href="#Q"/><use transform="matrix(0.015190972222222224,0,0,0.015190972222222224,20.371093750000004,0)" xlink:href="#C"/><use transform="matrix(0.015190972222222224,0,0,0.015190972222222224,31.76432291666667,0)" xlink:href="#D"/><use transform="matrix(0.015190972222222224,0,0,0.015190972222222224,51.13281250000001,0)" xlink:href="#N"/><use transform="matrix(0.015190972222222224,0,0,0.015190972222222224,70.7443576388889,0)" xlink:href="#M"/><use transform="matrix(0.015190972222222224,0,0,0.015190972222222224,79.17534722222223,0)" xlink:href="#I"/></g><path d="M1163 418H863v-597h-10C812-89 719 19 537 19 279 19 81-185 81-557c0-382 206-575 454-575 190 0 278 113 318 202h15v-188h295V418zM629-222c153 0 240-134 240-336 0-203-86-334-240-334-158 0-240 138-240 334 0 197 84 336 240 336" id="R"/><g id="i"><use transform="matrix(0.015190972222222224,0,0,0.015190972222222224,0,0)" xlink:href="#E"/><use transform="matrix(0.015190972222222224,0,0,0.015190972222222224,23.22699652777778,0)" xlink:href="#y"/><use transform="matrix(0.015190972222222224,0,0,0.015190972222222224,35.13671875,0)" xlink:href="#R"/><use transform="matrix(0.015190972222222224,0,0,0.015190972222222224,54.748263888888886,0)" xlink:href="#D"/><use transform="matrix(0.015190972222222224,0,0,0.015190972222222224,74.11675347222223,0)" xlink:href="#M"/><use transform="matrix(0.015190972222222224,0,0,0.015190972222222224,82.54774305555556,0)" xlink:href="#C"/><use transform="matrix(0.015190972222222224,0,0,0.015190972222222224,93.63715277777779,0)" xlink:href="#A"/><use transform="matrix(0.015190972222222224,0,0,0.015190972222222224,112.1701388888889,0)" xlink:href="#C"/><use transform="matrix(0.015190972222222224,0,0,0.015190972222222224,123.56336805555557,0)" xlink:href="#D"/><use transform="matrix(0.015190972222222224,0,0,0.015190972222222224,142.9318576388889,0)" xlink:href="#y"/><use transform="matrix(0.015190972222222224,0,0,0.015190972222222224,155.17578125000003,0)" xlink:href="#z"/></g><g id="j"><use transform="matrix(0.015190972222222224,0,0,0.015190972222222224,0,0)" xlink:href="#N"/><use transform="matrix(0.015190972222222224,0,0,0.015190972222222224,19.61154513888889,0)" xlink:href="#z"/></g><path d="M128 418v-1536h295v188h14c41-89 129-202 319-202 248 0 453 193 453 575 0 372-197 576-455 576-183 0-275-108-317-198h-9v597H128zm534-640c156 0 240-139 240-336 0-196-83-334-240-334-154 0-241 131-241 334 0 202 88 336 241 336" id="S"/><path d="M499 418V299c80-5 216 24 216-62 0-44-25-60-89-60h-91l26-158C264-10 81-233 81-554c0-346 210-578 547-578 265 0 455 142 497 372l-279 52c-25-116-99-188-215-188-160 0-244 139-244 341 0 200 84 341 244 341 116 0 193-74 217-195l279 51C1088-140 923 0 685 20l-4 68c126-6 197 51 197 157 0 123-72 173-239 173H499" id="T"/><path d="M440 22C227 22 68-92 68-313c0-250 202-322 422-343 195-21 271-24 271-105 0-95-63-149-175-149-116 0-187 57-211 129l-275-46c57-194 237-305 487-305 240 0 474 108 474 379V0H777v-155h-10C713-51 605 22 440 22zm290-1304c-128 0-195-103-258-103-42 0-63 39-65 97H242c4-169 84-265 208-265 129 0 189 103 257 103 45 0 63-33 68-97h162c-3 169-89 265-207 265zM525-189c140 0 238-93 238-211v-121c-37 26-156 42-222 51-111 16-185 59-185 149 0 87 70 132 169 132" id="U"/><g id="k"><use transform="matrix(0.015190972222222224,0,0,0.015190972222222224,0,0)" xlink:href="#E"/><use transform="matrix(0.015190972222222224,0,0,0.015190972222222224,23.22699652777778,0)" xlink:href="#S"/><use transform="matrix(0.015190972222222224,0,0,0.015190972222222224,42.83854166666667,0)" xlink:href="#P"/><use transform="matrix(0.015190972222222224,0,0,0.015190972222222224,51.26953125000001,0)" xlink:href="#M"/><use transform="matrix(0.015190972222222224,0,0,0.015190972222222224,59.70052083333334,0)" xlink:href="#J"/><use transform="matrix(0.015190972222222224,0,0,0.015190972222222224,78.30946180555557,0)" xlink:href="#z"/><use transform="matrix(0.015190972222222224,0,0,0.015190972222222224,96.3715277777778,0)" xlink:href="#T"/><use transform="matrix(0.015190972222222224,0,0,0.015190972222222224,114.98046875000003,0)" xlink:href="#U"/><use transform="matrix(0.015190972222222224,0,0,0.015190972222222224,133.04253472222226,0)" xlink:href="#I"/></g><path d="M135 0v-1490h980v253H440v416h609v249H440V0H135" id="V"/><g id="l"><use transform="matrix(0.015190972222222224,0,0,0.015190972222222224,0,0)" xlink:href="#V"/><use transform="matrix(0.015190972222222224,0,0,0.015190972222222224,17.651909722222225,0)" xlink:href="#y"/><use transform="matrix(0.015190972222222224,0,0,0.015190972222222224,29.56163194444445,0)" xlink:href="#I"/><use transform="matrix(0.015190972222222224,0,0,0.015190972222222224,48.641493055555564,0)" xlink:href="#w"/><use transform="matrix(0.015190972222222224,0,0,0.015190972222222224,68.0099826388889,0)" xlink:href="#C"/></g><path d="M135 0v-1490h997v253H440v360h640v249H440v375h694V0H135" id="W"/><g id="m"><use transform="matrix(0.015190972222222224,0,0,0.015190972222222224,0,0)" xlink:href="#W"/><use transform="matrix(0.015190972222222224,0,0,0.015190972222222224,18.897569444444446,0)" xlink:href="#w"/><use transform="matrix(0.015190972222222224,0,0,0.015190972222222224,38.266059027777786,0)" xlink:href="#N"/></g><path d="M51 0l535-762-487-728h354c99 152 240 357 306 516 68-159 211-365 312-516h346L934-771 1461 0h-362C993-164 838-379 756-546 674-378 513-163 404 0H51" id="X"/><path d="M135 0v-1490h305v1237h643V0H135" id="Y"/><g id="n"><use transform="matrix(0.015190972222222224,0,0,0.015190972222222224,0,0)" xlink:href="#X"/><use transform="matrix(0.015190972222222224,0,0,0.015190972222222224,22.968750000000004,0)" xlink:href="#G"/><use transform="matrix(0.015190972222222224,0,0,0.015190972222222224,51.95312500000001,0)" xlink:href="#Y"/></g><path d="M120 396l69-226c123 42 245 23 254-107l8-60L31-1118h319c87 288 199 559 259 872 72-308 185-583 277-872h315L726 132c-68 181-186 294-410 294-79 0-153-13-196-30" id="Z"/><g id="o"><use transform="matrix(0.015190972222222224,0,0,0.015190972222222224,0,0)" xlink:href="#Y"/><use transform="matrix(0.015190972222222224,0,0,0.015190972222222224,17.591145833333336,0)" xlink:href="#z"/><use transform="matrix(0.015190972222222224,0,0,0.015190972222222224,35.121527777777786,0)" xlink:href="#Z"/><use transform="matrix(0.015190972222222224,0,0,0.015190972222222224,53.28993055555557,0)" xlink:href="#I"/><use transform="matrix(0.015190972222222224,0,0,0.015190972222222224,72.36979166666669,0)" xlink:href="#D"/><use transform="matrix(0.015190972222222224,0,0,0.015190972222222224,91.73828125000003,0)" xlink:href="#C"/><use transform="matrix(0.015190972222222224,0,0,0.015190972222222224,102.90364583333337,0)" xlink:href="#B"/></g><g id="p"><use transform="matrix(0.015190972222222224,0,0,0.015190972222222224,0,0)" xlink:href="#v"/><use transform="matrix(0.015190972222222224,0,0,0.015190972222222224,8.734809027777779,0)" xlink:href="#K"/><use transform="matrix(0.015190972222222224,0,0,0.015190972222222224,37.126736111111114,0)" xlink:href="#x"/><use transform="matrix(0.015190972222222224,0,0,0.015190972222222224,49.50737847222223,0)" xlink:href="#y"/><use transform="matrix(0.015190972222222224,0,0,0.015190972222222224,61.75130208333334,0)" xlink:href="#z"/><use transform="matrix(0.015190972222222224,0,0,0.015190972222222224,79.81336805555557,0)" xlink:href="#A"/><use transform="matrix(0.015190972222222224,0,0,0.015190972222222224,98.34635416666669,0)" xlink:href="#B"/><use transform="matrix(0.015190972222222224,0,0,0.015190972222222224,115.77039930555557,0)" xlink:href="#C"/><use transform="matrix(0.015190972222222224,0,0,0.015190972222222224,127.16362847222223,0)" xlink:href="#y"/><use transform="matrix(0.015190972222222224,0,0,0.015190972222222224,139.83289930555557,0)" xlink:href="#D"/><use transform="matrix(0.015190972222222224,0,0,0.015190972222222224,159.2013888888889,0)" xlink:href="#C"/><use transform="matrix(0.015190972222222224,0,0,0.015190972222222224,170.59461805555557,0)" xlink:href="#D"/><use transform="matrix(0.015190972222222224,0,0,0.015190972222222224,189.9631076388889,0)" xlink:href="#y"/><use transform="matrix(0.015190972222222224,0,0,0.015190972222222224,202.20703125000003,0)" xlink:href="#z"/></g><path d="M795 20C377 20 94-272 94-743c0-483 302-767 694-767 335 0 593 206 635 500h-310c-42-142-154-229-320-229-230 0-389 177-389 493s154 495 393 495c212 0 340-120 345-311H818v-232h620v186c0 391-269 628-643 628" id="aa"/><path d="M135 0v-1490h305v602h649v-602h306V0h-306v-635H440V0H135" id="ab"/><g id="q"><use transform="matrix(0.015190972222222224,0,0,0.015190972222222224,0,0)" xlink:href="#aa"/><use transform="matrix(0.015190972222222224,0,0,0.015190972222222224,23.348524305555557,0)" xlink:href="#M"/><use transform="matrix(0.015190972222222224,0,0,0.015190972222222224,31.779513888888893,0)" xlink:href="#C"/><use transform="matrix(0.015190972222222224,0,0,0.015190972222222224,43.24869791666667,0)" xlink:href="#ab"/><use transform="matrix(0.015190972222222224,0,0,0.015190972222222224,66.49088541666667,0)" xlink:href="#D"/><use transform="matrix(0.015190972222222224,0,0,0.015190972222222224,85.859375,0)" xlink:href="#L"/></g><path d="M135 0v-1490h591c327 0 492 160 492 383 0 177-115 286-268 320v15c168 8 326 140 326 361 0 236-176 411-512 411H135zm305-251h264c179 0 258-76 258-189 0-125-97-215-250-215H440v404zm0-613h241c131 0 228-74 228-194 0-109-79-183-222-183H440v377" id="ac"/><path d="M128 0v-1490h300v802h17l366-430h347L740-633 1179 0H826L514-456l-86 97V0H128" id="ad"/><g id="r"><use transform="matrix(0.015190972222222224,0,0,0.015190972222222224,0,0)" xlink:href="#ac"/><use transform="matrix(0.015190972222222224,0,0,0.015190972222222224,20.583767361111114,0)" xlink:href="#z"/><use transform="matrix(0.015190972222222224,0,0,0.015190972222222224,38.64583333333334,0)" xlink:href="#J"/><use transform="matrix(0.015190972222222224,0,0,0.015190972222222224,56.95095486111112,0)" xlink:href="#ad"/></g><path d="M135 0v-1490h305c1 251 0 501-5 746 157-254 405-512 598-746h373L849-845 1422 0h-361L638-644 440-426V0H135" id="ae"/><g id="s"><use transform="matrix(0.015190972222222224,0,0,0.015190972222222224,0,0)" xlink:href="#ae"/><use transform="matrix(0.015190972222222224,0,0,0.015190972222222224,21.145833333333336,0)" xlink:href="#I"/><use transform="matrix(0.015190972222222224,0,0,0.015190972222222224,40.22569444444445,0)" xlink:href="#C"/><use transform="matrix(0.015190972222222224,0,0,0.015190972222222224,51.69487847222223,0)" xlink:href="#P"/><use transform="matrix(0.015190972222222224,0,0,0.015190972222222224,60.125868055555564,0)" xlink:href="#M"/><use transform="matrix(0.015190972222222224,0,0,0.015190972222222224,68.5568576388889,0)" xlink:href="#w"/></g><path d="M789 20C394 20 94-260 94-744c0-487 300-766 695-766s695 279 695 766c0 264-89 467-233 597l215 271h-285L1058-29C976 3 886 20 789 20zm-94-532h261l108 139c70-83 110-208 110-371 0-321-154-495-385-495s-385 175-385 495c0 356 184 537 481 482" id="af"/><g id="t"><use transform="matrix(0.015190972222222224,0,0,0.015190972222222224,0,0)" xlink:href="#Q"/><use transform="matrix(0.015190972222222224,0,0,0.015190972222222224,20.371093750000004,0)" xlink:href="#af"/><use transform="matrix(0.015190972222222224,0,0,0.015190972222222224,44.53993055555556,0)" xlink:href="#Y"/><use transform="matrix(0.015190972222222224,0,0,0.015190972222222224,62.13107638888889,0)" xlink:href="#M"/><use transform="matrix(0.015190972222222224,0,0,0.015190972222222224,70.56206597222223,0)" xlink:href="#C"/><use transform="matrix(0.015190972222222224,0,0,0.015190972222222224,81.65147569444446,0)" xlink:href="#A"/></g><g id="u"><use transform="matrix(0.015190972222222224,0,0,0.015190972222222224,0,0)" xlink:href="#F"/><use transform="matrix(0.015190972222222224,0,0,0.015190972222222224,22.467447916666668,0)" xlink:href="#z"/><use transform="matrix(0.015190972222222224,0,0,0.015190972222222224,40.52951388888889,0)" xlink:href="#C"/><use transform="matrix(0.015190972222222224,0,0,0.015190972222222224,52.074652777777786,0)" xlink:href="#z"/><use transform="matrix(0.015190972222222224,0,0,0.015190972222222224,70.13671875000001,0)" xlink:href="#L"/><use transform="matrix(0.015190972222222224,0,0,0.015190972222222224,90.05208333333334,0)" xlink:href="#z"/><use transform="matrix(0.015190972222222224,0,0,0.015190972222222224,108.11414930555557,0)" xlink:href="#B"/><use transform="matrix(0.015190972222222224,0,0,0.015190972222222224,125.53819444444446,0)" xlink:href="#A"/></g></defs></g></svg>