<svg xmlns="http://www.w3.org/2000/svg" xmlns:xlink="http://www.w3.org/1999/xlink" xmlns:lucid="lucid" width="3134.5" height="1602"><g transform="translate(2173.5 1601)" lucid:page-tab-id="0_0"><path d="M-2500-2000h3500V500h-3500z" fill="#fff"/><path d="M-820.54-1578.84A11.82 11.82 0 0 0-811-1574h225a6 6 0 0 1 6 6v162a6 6 0 0 1-6 6h-628a6 6 0 0 1-6-6v-188a6 6 0 0 1 6-6h372a11.82 11.82 0 0 1 9.54 4.84zM-1220-1574h403" stroke="#000" stroke-width="2" fill="#fff"/><use xlink:href="#a" transform="matrix(1,0,0,1,-1212,-1600) translate(0 21.52777777777778)"/><use xlink:href="#b" transform="matrix(1,0,0,1,-1208,-1566) translate(63.75954861111103 90.31727430555556)"/><path d="M-1132.85-1139.28a10.04 10.04 0 0 0 8.85 5.28h158a6 6 0 0 1 6 6v202a6 6 0 0 1-6 6h-448a6 6 0 0 1-6-6v-228a6 6 0 0 1 6-6h264a10.04 10.04 0 0 1 8.85 5.28zM-1420-1134h290" stroke="#000" stroke-width="2" fill="#fff"/><use xlink:href="#a" transform="matrix(1,0,0,1,-1412,-1160) translate(0 21.52777777777778)"/><use xlink:href="#c" transform="matrix(1,0,0,1,-1408,-1126) translate(190.93728298611111 110.31727430555554)"/><path d="M-900-1395.5v10.95m0 14.6v21.9m0 14.6v21.9m0 14.6v10.95a6 6 0 0 1-6 6h-10.42m-13.9 0h-20.85m-13.9 0h-20.85m-13.9 0h-20.85m-13.9 0h-20.86m-13.9 0h-20.85m-13.9 0h-20.85m-13.9 0h-20.85m-13.9 0H-1184a6 6 0 0 0-6 6v12.06m0 16.07v24.1m0 16.1v12.05" stroke="#3a414a" stroke-width="7" fill="none"/><path d="M-896.52-1395.4h-6.96v-3.6h6.96z" stroke="#3a414a" stroke-width=".05" fill="#3a414a"/><path d="M-1190-1165.95l14.85-14.85-14.85-14.85-14.85 14.85z" stroke="#3a414a" stroke-width="7" fill="#3a414a"/><path d="M-492.85-1139.28A10.04 10.04 0 0 0-484-1134h158a6 6 0 0 1 6 6v202a6 6 0 0 1-6 6h-448a6 6 0 0 1-6-6v-228a6 6 0 0 1 6-6h264a10.04 10.04 0 0 1 8.85 5.28zM-780-1134h290" stroke="#000" stroke-width="2" fill="#fff"/><use xlink:href="#a" transform="matrix(1,0,0,1,-772,-1160) translate(0 21.52777777777778)"/><use xlink:href="#d" transform="matrix(1,0,0,1,-768,-1126) translate(205.03450520833334 110.31727430555554)"/><path d="M-550-1164.5v-10.95m0-14.6v-21.9m0-14.6v-21.9m0-14.6V-1274a6 6 0 0 0-6-6h-9.8m-13.07 0h-19.6m-13.06 0h-19.6m-13.07 0h-9.8a6 6 0 0 1-6-6v-12.6m0-16.77v-25.17m0-16.78v-12.6" stroke="#3a414a" stroke-width="7" fill="none"/><path d="M-546.52-1161h-6.96v-3.6h6.96z" stroke="#3a414a" stroke-width=".05" fill="#3a414a"/><path d="M-660-1387.67l4.63 14.26h-9.26z" stroke="#3a414a" stroke-width="7" fill="#3a414a"/><path d="M-1772.85-659.28A10.04 10.04 0 0 0-1764-654h158a6 6 0 0 1 6 6v202a6 6 0 0 1-6 6h-448a6 6 0 0 1-6-6v-228a6 6 0 0 1 6-6h264a10.04 10.04 0 0 1 8.85 5.28zM-2060-654h290" stroke="#000" stroke-width="2" fill="#fff"/><use xlink:href="#a" transform="matrix(1,0,0,1,-2052,-680) translate(0 21.52777777777778)"/><use xlink:href="#e" transform="matrix(1,0,0,1,-2048,-646) translate(150.14952256944443 110.31727430555554)"/><path d="M-1132.85-659.28A10.04 10.04 0 0 0-1124-654h158a6 6 0 0 1 6 6v202a6 6 0 0 1-6 6h-448a6 6 0 0 1-6-6v-228a6 6 0 0 1 6-6h264a10.04 10.04 0 0 1 8.85 5.28zM-1420-654h290" stroke="#000" stroke-width="2" fill="#fff"/><use xlink:href="#a" transform="matrix(1,0,0,1,-1412,-680) translate(0 21.52777777777778)"/><use xlink:href="#f" transform="matrix(1,0,0,1,-1408,-646) translate(173.67274305555554 110.31727430555554)"/><path d="M147.16-659.28A10.04 10.04 0 0 0 156-654h158a6 6 0 0 1 6 6v202a6 6 0 0 1-6 6h-448a6 6 0 0 1-6-6v-228a6 6 0 0 1 6-6h264a10.04 10.04 0 0 1 8.84 5.28zM-140-654h290" stroke="#000" stroke-width="2" fill="#fff"/><use xlink:href="#a" transform="matrix(1,0,0,1,-132,-680) translate(0 21.52777777777778)"/><use xlink:href="#g" transform="matrix(1,0,0,1,-128,-646) translate(170.353515625 110.31727430555554)"/><path d="M787.15-659.28A10.04 10.04 0 0 0 796-654h158a6 6 0 0 1 6 6v202a6 6 0 0 1-6 6H506a6 6 0 0 1-6-6v-228a6 6 0 0 1 6-6h264a10.04 10.04 0 0 1 8.85 5.28zM500-654h290" stroke="#000" stroke-width="2" fill="#fff"/><use xlink:href="#a" transform="matrix(1,0,0,1,508,-680) translate(0 21.52777777777778)"/><use xlink:href="#h" transform="matrix(1,0,0,1,512,-646) translate(161.61870659722223 110.31727430555554)"/><path d="M-315.5-1111.57h10.37m13.83 0h20.75m13.82 0h20.75m13.83 0h20.74m13.82 0h20.75m13.83 0h20.74m13.83 0h20.74m13.84 0h20.75m13.82 0h20.74m13.83 0H6.02m13.83 0H40.6m13.84 0h20.74m13.83 0h20.75m13.83 0h20.75m13.83 0h20.74m13.83 0h20.75m13.82 0h20.75m13.83 0h20.74m13.83 0h20.75m13.82 0h20.75m13.83 0h20.74m13.83 0h10.37a6 6 0 0 1 6 6v10.45m0 13.92v20.9m0 13.9v20.9m0 13.93v20.88m0 13.94v20.88m0 13.93v20.9m0 13.9v20.9m0 13.92v20.9m0 13.9v20.9m0 13.92v20.88m0 13.93v20.9m0 13.92v20.88m0 13.93v20.88m0 13.94v20.9m0 13.9v20.9m0 13.92v20.9m0 13.9v20.9m0 13.92v20.9m0 13.92v20.88m0 13.93v20.9m0 13.92v20.9m0 13.9v20.9m0 13.92v20.9m0 13.9v20.9m0 13.92v10.45" stroke="#3a414a" stroke-width="7" fill="none"/><path d="M-315.4-1108.1h-3.6v-6.94h3.6z" stroke="#3a414a" stroke-width=".05" fill="#3a414a"/><path d="M416.54-252.33l-4.63-14.26h9.28z" stroke="#3a414a" stroke-width="7" fill="#3a414a"/><path d="M487.15-219.28A10.04 10.04 0 0 0 496-214h158a6 6 0 0 1 6 6V-6a6 6 0 0 1-6 6H206a6 6 0 0 1-6-6v-228a6 6 0 0 1 6-6h264a10.04 10.04 0 0 1 8.85 5.28zM200-214h290" stroke="#000" stroke-width="2" fill="#fff"/><use xlink:href="#a" transform="matrix(1,0,0,1,208,-240) translate(0 21.52777777777778)"/><use xlink:href="#i" transform="matrix(1,0,0,1,212,-206) translate(172.6853298611111 110.31727430555554)"/><path d="M614.04-435.5v9.15m0 12.2v9.15a6 6 0 0 0 6 6h11.25m14.98 0h22.5m14.98 0H695a6 6 0 0 1 6 6v10m0 13.36v20.03m0 13.34v20.02m0 13.35v20.04m0 13.35v20m0 13.36v20.03m0 13.34v20.02m0 13.35v20.04m0 13.35v10a6 6 0 0 1-6 6h-4.9" stroke="#3a414a" stroke-width="7" fill="none"/><path d="M617.52-435.4h-6.95v-3.6h6.95z" stroke="#3a414a" stroke-width=".05" fill="#3a414a"/><path d="M672.33-120l14.26-4.64v9.28z" stroke="#3a414a" stroke-width="7" fill="#3a414a"/><path d="M-550-915.5v10.95m0 14.6v21.9m0 14.6v21.9m0 14.6V-806a6 6 0 0 0 6 6h10.26m13.7 0h20.52m13.7 0h20.52m13.7 0h20.52m13.7 0h20.52m13.68 0h20.53m13.7 0h20.52m13.7 0h20.52m13.68 0H-260m13.7 0h20.53m13.68 0h20.54m13.7 0h20.52m13.7 0h20.52m13.7 0h20.52m13.68 0h20.53m13.7 0h20.53m13.7 0h20.52m13.7 0h20.52m13.68 0h10.27a6 6 0 0 1 6 6v12.6m0 16.77v25.17m0 16.78v12.6" stroke="#3a414a" stroke-width="7" fill="none"/><path d="M-546.52-915.4h-6.96v-3.6h6.96z" stroke="#3a414a" stroke-width=".05" fill="#3a414a"/><path d="M77.92-692.33l-4.64-14.26h9.27z" stroke="#3a414a" stroke-width="7" fill="#3a414a"/><path d="M-315.5-1040h10.4m13.85 0h20.78m13.86 0h20.77m13.86 0h20.78m13.87 0h20.78m13.86 0h20.8m13.84 0h20.8m13.84 0h20.8m13.84 0h20.8m13.84 0h20.8m13.84 0h20.78m13.86 0h20.78m13.86 0h20.78m13.86 0h20.78m13.86 0h20.78m13.86 0h20.78m13.86 0h20.78m13.86 0h20.78m13.86 0h20.78m13.86 0h20.78m13.85 0h20.78m13.86 0h20.78m13.85 0h20.8m13.84 0h20.8m13.85 0h20.8m13.84 0h20.78m13.85 0h20.78m13.87 0h20.78m13.86 0h20.8m13.85 0h20.78m13.86 0h10.38a6 6 0 0 1 6 6v10.8m0 14.4v21.6m0 14.38v21.6m0 14.4v21.6m0 14.38v21.6m0 14.4v21.6m0 14.38v21.6m0 14.4v21.6m0 14.38v21.6m0 14.4v10.8" stroke="#3a414a" stroke-width="7" fill="none"/><path d="M-315.4-1036.53h-3.6v-6.94h3.6z" stroke="#3a414a" stroke-width=".05" fill="#3a414a"/><path d="M729.68-692.33l-4.63-14.26h9.27z" stroke="#3a414a" stroke-width="7" fill="#3a414a"/><path d="M840.7-658.5v-10.44m0-13.93v-20.9m0-13.9v-20.9m0-13.92v-20.88m0-13.93v-20.9m0-13.92v-20.9m0-13.9v-20.9m0-13.92v-20.9m0-13.92v-20.88m0-13.93v-20.9m0-13.9v-20.9m0-13.92v-20.88m0-13.93v-20.9m0-13.92v-20.9m0-13.9v-20.9m0-13.92v-20.9m0-13.92v-20.88m0-13.93v-20.9m0-13.9v-20.9m0-13.92v-20.88m0-13.93v-20.9m0-13.92v-20.9m0-13.9v-20.9m0-13.92v-20.9m0-13.92V-1494a6 6 0 0 0-6-6h-10.4m-13.84 0H789.7m-13.86 0h-20.77m-13.84 0h-20.77m-13.85 0h-20.76m-13.84 0h-20.77m-13.85 0H616.6m-13.83 0H582m-13.85 0h-20.77m-13.84 0h-20.77m-13.85 0h-20.77m-13.84 0h-20.76m-13.85 0H408.9m-13.84 0H374.3m-13.84 0H339.7m-13.85 0h-20.77m-13.85 0h-20.77m-13.84 0h-20.77m-13.85 0h-20.76m-13.85 0H166.6m-13.85 0H132m-13.84 0H97.4m-13.86 0H62.77m-13.84 0H28.16m-13.85 0H-6.44m-13.85 0h-20.77m-13.84 0H-75.7m-13.85 0h-20.77m-13.84 0h-20.77m-13.86 0h-20.77m-13.84 0h-20.77m-13.85 0h-20.76m-13.85 0h-20.77m-13.85 0H-318m-13.83 0h-20.77m-13.85 0h-20.77m-13.84 0h-20.77m-13.85 0h-20.77m-13.84 0h-20.76m-13.85 0h-20.78m-13.84 0h-10.4" stroke="#3a414a" stroke-width="7" fill="none"/><path d="M844.16-655h-6.95v-3.6h6.96z" stroke="#3a414a" stroke-width=".05" fill="#3a414a"/><path d="M-567.67-1500l14.26-4.63v9.27z" stroke="#3a414a" stroke-width="7" fill="#3a414a"/><path d="M-103.67-684.5v-10.85m0-14.46v-21.7m0-14.46v-21.7m0-14.46v-21.7m0-14.45v-21.7m0-14.46v-21.7m0-14.45v-21.7m0-14.46v-21.7m0-14.45v-10.84a6 6 0 0 0-6-6h-10.82m-14.4 0h-21.63m-14.42 0h-21.63m-14.42 0h-21.63m-14.42 0h-21.63m-14.4 0h-10.83" stroke="#3a414a" stroke-width="7" fill="none"/><path d="M-100.2-681h-6.95v-3.6h6.95z" stroke="#3a414a" stroke-width=".05" fill="#3a414a"/><path d="M-307.67-979.74l14.26-4.63v9.27z" stroke="#3a414a" stroke-width="7" fill="#3a414a"/><path d="M-656.88-915.5v9.15m0 12.2v9.15a6 6 0 0 0 6 6h8a6 6 0 0 1 6 6v10.97m0 14.64v21.96m0 14.63v21.94m0 14.63v21.95m0 14.63v21.95m0 14.63v10.98" stroke="#3a414a" stroke-width="7" fill="none"/><path d="M-653.4-915.4h-6.96v-3.6h6.96z" stroke="#3a414a" stroke-width=".05" fill="#3a414a"/><path d="M-636.88-672.33l-4.63-14.26h9.26z" stroke="#3a414a" stroke-width="7" fill="#3a414a"/><path d="M-530-664.5v-11.95m0-15.93v-23.9m0-15.94v-23.9m0-15.93V-784a6 6 0 0 0-6-6h-10.23m-13.64 0h-20.47m-13.64 0h-20.46m-13.64 0h-20.47m-13.64 0h-20.45m-13.64 0h-20.46m-13.64 0h-20.46m-13.64 0h-20.47m-13.64 0h-20.47m-13.65 0h-20.46m-13.64 0h-20.46m-13.65 0h-20.46m-13.63 0h-20.47m-13.64 0h-20.46m-13.64 0h-20.47m-13.65 0h-20.46m-13.65 0h-20.47m-13.64 0h-20.46m-13.64 0h-20.47m-13.64 0H-1184a6 6 0 0 1-6-6v-9.4m0-12.5v-18.8m0-12.5V-868m0-12.52v-9.4" stroke="#3a414a" stroke-width="7" fill="none"/><path d="M-526.52-661h-6.96v-3.6h6.96z" stroke="#3a414a" stroke-width=".05" fill="#3a414a"/><path d="M-1190-907.67l4.63 14.26h-9.27z" stroke="#3a414a" stroke-width="7" fill="#3a414a"/><path d="M-1190-684.5v-9.15m0-12.2V-715a6 6 0 0 0-6-6h-11.1m-14.8 0h-22.2m-14.8 0h-22.2m-14.8 0h-22.2m-14.8 0h-22.2m-14.8 0h-22.2m-14.8 0h-22.2m-14.8 0h-11.1a6 6 0 0 1-6-6v-10.23m0-13.65v-20.46m0-13.65v-20.46m0-13.64v-20.47m0-13.64v-20.48m0-13.64v-20.47m0-13.63v-20.47m0-13.64V-976m0-13.66v-20.46m0-13.65V-1034a6 6 0 0 1 6-6h4.9" stroke="#3a414a" stroke-width="7" fill="none"/><path d="M-1186.53-681h-6.94v-3.6h6.94z" stroke="#3a414a" stroke-width=".05" fill="#3a414a"/><path d="M-1432.33-1040l-14.26 4.63v-9.27z" stroke="#3a414a" stroke-width="7" fill="#3a414a"/><path d="M195.5-120h-10.56m-14.1 0h-21.12m-14.1 0H114.5m-14.08 0H79.3m-14.1 0H44.07m-14.1 0H8.86m-14.08 0h-21.13m-14.1 0h-21.12m-14.1 0H-96.8m-14.08 0H-132m-14.1 0h-21.13m-14.1 0h-21.1m-14.1 0h-21.13m-14.1 0h-21.12m-14.08 0h-21.14m-14.08 0h-21.13m-14.1 0h-21.13m-14.08 0h-21.14m-14.1 0h-21.12m-14.1 0h-21.12m-14.08 0h-21.13m-14.08 0h-21.13m-14.1 0h-21.13m-14.08 0h-21.14m-14.1 0h-21.12m-14.1 0h-21.12m-14.08 0h-21.13m-14.08 0h-21.13m-14.1 0h-21.13m-14.08 0h-21.14m-14.1 0h-21.12m-14.08 0h-21.13m-14.1 0h-21.12m-14.08 0h-21.13m-14.1 0h-21.12m-14.1 0h-21.12m-14.1 0h-21.12m-14.08 0h-21.13m-14.1 0h-21.12m-14.08 0h-21.13m-14.1 0h-21.12m-14.1 0h-21.12m-14.1 0h-21.1m-14.1 0h-21.13m-14.1 0h-21.12m-14.07 0h-21.13m-14.1 0H-1435m-14.1 0h-21.12m-14.08 0h-21.13m-14.1 0h-21.12m-14.1 0h-21.12m-14.07 0h-21.13m-14.1 0h-21.12m-14.1 0h-21.12m-14.08 0h-21.13m-14.1 0h-21.12m-14.08 0h-21.13m-14.1 0h-21.12m-14.1 0h-21.12m-14.08 0h-21.13m-14.1 0h-21.12m-14.1 0h-21.12m-14.08 0h-21.13m-14.1 0h-21.12m-14.1 0h-21.12m-14.08 0h-21.13m-14.1 0h-21.12m-14.1 0H-2164a6 6 0 0 1-6-6v-10.52m0-14.03v-21.05m0-14.03v-21.05m0-14.03v-21.05m0-14.03v-21.05m0-14.03v-21.05m0-14.04V-347m0-14v-21.06m0-14.03v-21.04m0-14.03v-21.04m0-14.05v-21.04m0-14.02v-21.05m0-14.03v-21.05m0-14.03v-21.04m0-14.03v-21.05m0-14.03v-21.05m0-14.03v-21.05m0-14.03v-21.05m0-14.03v-21.05m0-14.04v-21.04m0-14.03v-21.06m0-14.03v-21.04m0-14.03v-21.05m0-14.03v-21.04m0-14.02v-21.05m0-14.03v-21.05m0-14.03v-21.04m0-14.03v-21.05m0-14.03v-21.05m0-14.03v-21.05m0-14.04v-21.03m0-14.03v-21.05m0-14.04v-21.04m0-14.04v-21.04m0-14.03v-21.04m0-14.03v-21.04m0-14.05v-21.04m0-14.02v-21.05m0-14.03v-21.05m0-14.03V-1494a6 6 0 0 1 6-6h10.55m14.05 0h21.1m14.06 0h21.1m14.05 0h21.1m14.06 0h21.1m14.05 0h21.1m14.06 0h21.1m14.05 0h21.1m14.06 0h21.1m14.05 0h21.1m14.06 0h21.1m14.05 0h21.1m14.06 0h21.1m14.05 0h21.1m14.06 0h21.1m14.05 0h21.1m14.06 0h21.1m14.05 0h21.1m14.06 0h21.1m14.05 0h21.1m14.06 0h21.1m14.05 0h21.1m14.06 0h21.1m14.05 0h21.1m14.06 0h21.1m14.05 0h21.1m14.06 0h10.55" stroke="#3a414a" stroke-width="7" fill="none"/><path d="M199-116.53h-3.6v-6.94h3.6z" stroke="#3a414a" stroke-width=".05" fill="#3a414a"/><path d="M-1232.33-1500l-14.26 4.63v-9.27z" stroke="#3a414a" stroke-width="7" fill="#3a414a"/><path d="M-472.85-639.28A10.04 10.04 0 0 0-464-634h158a6 6 0 0 1 6 6v202a6 6 0 0 1-6 6h-448a6 6 0 0 1-6-6v-228a6 6 0 0 1 6-6h264a10.04 10.04 0 0 1 8.85 5.28zM-760-634h290" stroke="#000" stroke-width="2" fill="#fff"/><use xlink:href="#a" transform="matrix(1,0,0,1,-752,-660) translate(0 21.52777777777778)"/><use xlink:href="#j" transform="matrix(1,0,0,1,-748,-626) translate(150.0583767361111 110.31727430555554)"/><path d="M-1830-684.5v-10.36m0-13.8v-20.7m0-13.82v-20.7m0-13.8v-20.72m0-13.8v-20.72m0-13.8v-20.7m0-13.82v-20.7m0-13.8v-20.72m0-13.8V-971m0-13.8v-20.72m0-13.8v-20.7m0-13.82v-20.7m0-13.8v-20.72m0-13.8v-20.72m0-13.8v-20.7m0-13.82v-20.7m0-13.82v-20.7m0-13.8v-20.72m0-13.8v-20.72m0-13.8v-20.7m0-13.82v-20.7m0-13.8v-20.72m0-13.8v-10.36a6 6 0 0 1 6-6h10.76m14.35 0h21.53m14.35 0h21.52m14.35 0h21.52m14.35 0h21.52m14.35 0h21.5m14.36 0h21.52m14.34 0h21.53m14.34 0h21.5m14.36 0h21.52m14.35 0h21.52m14.35 0h21.52m14.35 0h21.52m14.34 0h21.52m14.35 0h21.53m14.35 0h21.52m14.35 0h10.76" stroke="#3a414a" stroke-width="7" fill="none"/><path d="M-1826.53-681h-6.94v-3.6h6.94z" stroke="#3a414a" stroke-width=".05" fill="#3a414a"/><path d="M-1232.33-1449.84l-14.26 4.63v-9.28z" stroke="#3a414a" stroke-width="7" fill="#3a414a"/><path d="M-784.5-1040h-11.92m-15.9 0h-23.85m-15.9 0H-864a6 6 0 0 0-6 6v10.8m0 14.4v21.6m0 14.4v21.6m0 14.4v21.6m0 14.4v21.6m0 14.4v21.6m0 14.4v21.6m0 14.4v21.6m0 14.4v21.6m0 14.4v21.6m0 14.4v21.6m0 14.4v21.6m0 14.4v21.6m0 14.4v10.8a6 6 0 0 1-6 6h-8.1m-10.77 0h-16.17m-10.78 0h-8.1" stroke="#3a414a" stroke-width="7" fill="none"/><path d="M-781-1036.53h-3.6v-6.94h3.6z" stroke="#3a414a" stroke-width=".05" fill="#3a414a"/><path d="M-947.67-560l14.26-4.63v9.26z" stroke="#3a414a" stroke-width="7" fill="#3a414a"/><path d="M-1269.45-915.5v12.25m0 16.33v24.5m0 16.34v24.5m0 16.33V-793a6 6 0 0 1-6 6h-10.7m-14.23 0h-21.37m-14.24 0h-21.36m-14.25 0h-21.37m-14.25 0h-21.36m-14.25 0h-21.36m-14.24 0h-21.37m-14.25 0h-21.37m-14.24 0h-21.37m-14.24 0h-21.37m-14.24 0h-21.37m-14.24 0h-21.36m-14.25 0h-21.37m-14.25 0h-10.68a6 6 0 0 0-6 6v9.7m0 12.9v19.4m0 12.9v19.4m0 12.92v9.7" stroke="#3a414a" stroke-width="7" fill="none"/><path d="M-1265.98-915.4h-6.95v-3.6h6.95z" stroke="#3a414a" stroke-width=".05" fill="#3a414a"/><path d="M-1744.4-666.33l-4.64-14.26h9.27z" stroke="#3a414a" stroke-width="7" fill="#3a414a"/><defs><path d="M180 0v-1490h510c348 0 508 209 508 474 0 266-160 477-507 477H370V0H180zm190-706h312c236 0 327-133 327-310 0-176-91-307-329-307H370v617" id="k"/><path d="M471 26C259 26 90-98 90-318c0-256 228-303 435-329 202-27 287-16 287-108 0-139-79-219-234-219-161 0-248 86-283 164l-173-57c86-203 278-265 451-265 150 0 419 46 419 395V0H815v-152h-12C765-73 660 26 471 26zm31-159c199 0 310-134 310-271v-155c-30 35-226 55-295 64-131 17-246 59-246 186 0 116 97 176 231 176" id="l"/><path d="M613 24c-304 0-509-231-509-576 0-350 205-580 509-580 216 0 392 114 453 309l-173 49c-33-115-133-197-280-197-223 0-326 196-326 419 0 220 103 415 326 415 150 0 252-85 285-206l172 49C1010-95 832 24 613 24" id="m"/><path d="M613 24c-304 0-509-231-509-576 0-350 205-580 509-580 305 0 511 230 511 580 0 345-206 576-511 576zm0-161c226 0 329-195 329-415 0-222-103-419-329-419-223 0-326 196-326 419 0 220 103 415 326 415" id="n"/><path d="M598-1118v154H368v674c0 100 37 144 132 144 23 0 62-6 92-12L629-6c-37 13-88 20-134 20-193 0-307-107-307-290v-688H20v-154h168v-266h180v266h230" id="o"/><path d="M628 24c-324 0-524-230-524-574 0-343 198-582 503-582 237 0 487 146 487 559v75H286c9 234 145 362 343 362 132 0 231-58 273-172l174 48C1024-91 857 24 628 24zM287-650h624c-17-190-120-322-304-322-192 0-309 151-320 322" id="p"/><g id="a"><use transform="matrix(0.010850694444444444,0,0,0.010850694444444444,0,0)" xlink:href="#k"/><use transform="matrix(0.010850694444444444,0,0,0.010850694444444444,14.192708333333332,0)" xlink:href="#l"/><use transform="matrix(0.010850694444444444,0,0,0.010850694444444444,26.671006944444443,0)" xlink:href="#m"/><use transform="matrix(0.010850694444444444,0,0,0.010850694444444444,39.36631944444444,0)" xlink:href="#n"/><use transform="matrix(0.010850694444444444,0,0,0.010850694444444444,52.69097222222222,0)" xlink:href="#o"/><use transform="matrix(0.010850694444444444,0,0,0.010850694444444444,59.74392361111112,0)" xlink:href="#p"/></g><path d="M158 0v-1118h175l1 205c55-151 181-225 313-225 147 0 245 90 285 228 53-141 190-228 352-228 194 0 352 125 352 384V0h-181v-749c0-161-105-225-225-225-151 0-243 103-243 244V0H807v-767c0-124-93-207-219-207-131 0-250 92-250 270V0H158" id="q"/><path d="M295 13c-75 0-135-60-135-135s60-135 135-135 135 60 135 135S370 13 295 13" id="r"/><path d="M65 0l393-574-370-544h210c88 136 192 297 267 435 67-142 176-302 264-435h206L661-564 1053 0H844c-94-144-206-310-287-458C484-308 366-142 273 0H65" id="s"/><path d="M158 418v-1536h174v179h20c37-59 106-193 324-193 279 0 474 222 474 576 0 356-194 580-473 580-213 0-288-135-325-197h-14v591H158zm492-555c209 0 317-186 317-421 0-232-105-413-317-413-206 0-314 166-314 413 0 249 111 421 314 421" id="t"/><path d="M338-1490V0H158v-1490h180" id="u"/><path d="M611 442c-248 0-391-105-460-228l146-94c47 65 117 165 314 165 178 0 307-82 307-266v-224h-17C863-141 792-18 576-18c-268 0-472-195-472-546 0-346 197-568 476-568 216 0 288 133 326 193h17v-179h175V29c0 289-215 413-487 413zm-5-620c203 0 314-146 314-390 0-237-108-403-314-403-213 0-319 180-319 403 0 230 109 390 319 390" id="v"/><path d="M538 24C308 24 148-78 108-271l171-41c32 123 123 178 257 178 156 0 256-77 256-169 0-77-54-128-164-154l-186-44c-203-48-300-148-300-305 0-192 176-326 414-326 230 0 351 112 402 269l-163 42c-31-80-94-158-238-158-133 0-233 69-233 162 0 83 57 129 188 160l169 40c203 48 298 149 298 302 0 196-179 339-441 339" id="w"/><path d="M678-1118v154H420V0H240v-964H20v-154h220v-149c0-194 155-293 318-293 85 0 141 18 168 30l-50 154c-19-6-47-17-97-17-111 0-159 58-159 166v109h258" id="x"/><path d="M537 14c-226 0-379-139-379-422v-710h180v695c0 172 97 275 253 275 160 0 281-109 281-300v-670h181V0H879v-209C806-46 684 14 537 14" id="y"/><path d="M338-670V0H158v-1118h173l1 207c72-158 192-221 342-221 226 0 378 139 378 422V0H872v-695c0-172-96-275-252-275-161 0-282 109-282 300" id="z"/><path d="M158 0v-1118h180V0H158zm91-1301c-68 0-125-53-125-119s57-119 125-119c69 0 126 53 126 119s-57 119-126 119" id="A"/><path d="M158 0v-1118h174v172h12c41-113 157-188 290-188 26 0 70 2 91 3v181c-11-2-60-10-108-10-161 0-279 109-279 260V0H158" id="B"/><g id="b"><use transform="matrix(0.015190972222222224,0,0,0.015190972222222224,0,0)" xlink:href="#m"/><use transform="matrix(0.015190972222222224,0,0,0.015190972222222224,17.773437500000004,0)" xlink:href="#n"/><use transform="matrix(0.015190972222222224,0,0,0.015190972222222224,36.42795138888889,0)" xlink:href="#q"/><use transform="matrix(0.015190972222222224,0,0,0.015190972222222224,63.680555555555564,0)" xlink:href="#r"/><use transform="matrix(0.015190972222222224,0,0,0.015190972222222224,72.64322916666667,0)" xlink:href="#p"/><use transform="matrix(0.015190972222222224,0,0,0.015190972222222224,90.08246527777777,0)" xlink:href="#s"/><use transform="matrix(0.015190972222222224,0,0,0.015190972222222224,107.06597222222221,0)" xlink:href="#l"/><use transform="matrix(0.015190972222222224,0,0,0.015190972222222224,124.53559027777776,0)" xlink:href="#q"/><use transform="matrix(0.015190972222222224,0,0,0.015190972222222224,151.78819444444443,0)" xlink:href="#t"/><use transform="matrix(0.015190972222222224,0,0,0.015190972222222224,170.8376736111111,0)" xlink:href="#u"/><use transform="matrix(0.015190972222222224,0,0,0.015190972222222224,178.37239583333331,0)" xlink:href="#p"/><use transform="matrix(0.015190972222222224,0,0,0.015190972222222224,196.51041666666666,0)" xlink:href="#r"/><use transform="matrix(0.015190972222222224,0,0,0.015190972222222224,205.47309027777777,0)" xlink:href="#v"/><use transform="matrix(0.015190972222222224,0,0,0.015190972222222224,224.55295138888889,0)" xlink:href="#p"/><use transform="matrix(0.015190972222222224,0,0,0.015190972222222224,242.69097222222223,0)" xlink:href="#w"/><use transform="matrix(0.015190972222222224,0,0,0.015190972222222224,259.11241319444446,0)" xlink:href="#o"/><use transform="matrix(0.015190972222222224,0,0,0.015190972222222224,269.4422743055556,0)" xlink:href="#l"/><use transform="matrix(0.015190972222222224,0,0,0.015190972222222224,286.91189236111114,0)" xlink:href="#n"/><use transform="matrix(0.015190972222222224,0,0,0.015190972222222224,305.56640625000006,0)" xlink:href="#x"/><use transform="matrix(0.015190972222222224,0,0,0.015190972222222224,317.0811631944445,0)" xlink:href="#y"/><use transform="matrix(0.015190972222222224,0,0,0.015190972222222224,335.47743055555566,0)" xlink:href="#z"/><use transform="matrix(0.015190972222222224,0,0,0.015190972222222224,353.85850694444457,0)" xlink:href="#m"/><use transform="matrix(0.015190972222222224,0,0,0.015190972222222224,371.63194444444457,0)" xlink:href="#A"/><use transform="matrix(0.015190972222222224,0,0,0.015190972222222224,379.1666666666668,0)" xlink:href="#n"/><use transform="matrix(0.015190972222222224,0,0,0.015190972222222224,397.8211805555557,0)" xlink:href="#z"/><use transform="matrix(0.015190972222222224,0,0,0.015190972222222224,416.2022569444446,0)" xlink:href="#l"/><use transform="matrix(0.015190972222222224,0,0,0.015190972222222224,433.67187500000017,0)" xlink:href="#B"/><use transform="matrix(0.015190972222222224,0,0,0.015190972222222224,445.87022569444457,0)" xlink:href="#A"/><use transform="matrix(0.015190972222222224,0,0,0.015190972222222224,453.4049479166668,0)" xlink:href="#n"/><use transform="matrix(0.015190972222222224,0,0,0.015190972222222224,472.0594618055557,0)" xlink:href="#w"/></g><path d="M180 0v-1490h510c348 0 508 194 508 460 0 198-88 351-276 417L1256 0h-220L726-579c-117 2-238 0-356 1V0H180zm190-747h312c235 0 327-108 327-283 0-177-92-293-329-293H370v576" id="C"/><g id="c"><use transform="matrix(0.015190972222222224,0,0,0.015190972222222224,0,0)" xlink:href="#C"/><use transform="matrix(0.015190972222222224,0,0,0.015190972222222224,19.56597222222222,0)" xlink:href="#p"/><use transform="matrix(0.015190972222222224,0,0,0.015190972222222224,37.70399305555556,0)" xlink:href="#w"/></g><g id="d"><use transform="matrix(0.015190972222222224,0,0,0.015190972222222224,0,0)" xlink:href="#y"/><use transform="matrix(0.015190972222222224,0,0,0.015190972222222224,18.396267361111114,0)" xlink:href="#A"/></g><path d="M577 24c-279 0-473-224-473-580 0-354 195-576 474-576 218 0 287 134 324 193h14v-551h180V0H922v-173h-20C865-111 790 24 577 24zm27-161c203 0 314-172 314-421 0-247-108-413-314-413-212 0-317 181-317 413 0 235 108 421 317 421" id="D"/><path d="M677 24c-213 0-288-135-325-197h-20V0H158v-1490h180v551h14c37-59 106-193 324-193 279 0 474 222 474 576 0 356-194 580-473 580zm-27-161c209 0 317-186 317-421 0-232-105-413-317-413-206 0-314 166-314 413 0 249 111 421 314 421" id="E"/><g id="e"><use transform="matrix(0.015190972222222224,0,0,0.015190972222222224,0,0)" xlink:href="#D"/><use transform="matrix(0.015190972222222224,0,0,0.015190972222222224,19.049479166666668,0)" xlink:href="#l"/><use transform="matrix(0.015190972222222224,0,0,0.015190972222222224,36.51909722222223,0)" xlink:href="#o"/><use transform="matrix(0.015190972222222224,0,0,0.015190972222222224,46.84895833333334,0)" xlink:href="#l"/><use transform="matrix(0.015190972222222224,0,0,0.015190972222222224,64.3185763888889,0)" xlink:href="#E"/><use transform="matrix(0.015190972222222224,0,0,0.015190972222222224,83.67187500000001,0)" xlink:href="#l"/><use transform="matrix(0.015190972222222224,0,0,0.015190972222222224,101.14149305555557,0)" xlink:href="#w"/><use transform="matrix(0.015190972222222224,0,0,0.015190972222222224,117.5629340277778,0)" xlink:href="#p"/></g><path d="M140 405l46-156c120 36 205 19 263-150l32-93L54-1118h197c107 313 237 620 324 950 87-331 219-637 326-950h196L606 167c-68 178-176 259-334 259-64 0-113-12-132-21" id="F"/><g id="f"><use transform="matrix(0.015190972222222224,0,0,0.015190972222222224,0,0)" xlink:href="#u"/><use transform="matrix(0.015190972222222224,0,0,0.015190972222222224,7.534722222222223,0)" xlink:href="#l"/><use transform="matrix(0.015190972222222224,0,0,0.015190972222222224,24.548611111111114,0)" xlink:href="#F"/><use transform="matrix(0.015190972222222224,0,0,0.015190972222222224,41.42578125,0)" xlink:href="#n"/><use transform="matrix(0.015190972222222224,0,0,0.015190972222222224,60.080295138888886,0)" xlink:href="#y"/><use transform="matrix(0.015190972222222224,0,0,0.015190972222222224,78.4765625,0)" xlink:href="#o"/></g><path d="M481 0L54-1118h197c107 314 236 620 325 951 87-331 217-637 324-951h197L670 0H481" id="G"/><g id="g"><use transform="matrix(0.015190972222222224,0,0,0.015190972222222224,0,0)" xlink:href="#G"/><use transform="matrix(0.015190972222222224,0,0,0.015190972222222224,17.332899305555557,0)" xlink:href="#l"/><use transform="matrix(0.015190972222222224,0,0,0.015190972222222224,34.802517361111114,0)" xlink:href="#u"/><use transform="matrix(0.015190972222222224,0,0,0.015190972222222224,42.337239583333336,0)" xlink:href="#y"/><use transform="matrix(0.015190972222222224,0,0,0.015190972222222224,60.73350694444445,0)" xlink:href="#p"/><use transform="matrix(0.015190972222222224,0,0,0.015190972222222224,78.87152777777779,0)" xlink:href="#w"/></g><g id="h"><use transform="matrix(0.015190972222222224,0,0,0.015190972222222224,0,0)" xlink:href="#l"/><use transform="matrix(0.015190972222222224,0,0,0.015190972222222224,17.469618055555557,0)" xlink:href="#D"/><use transform="matrix(0.015190972222222224,0,0,0.015190972222222224,36.51909722222223,0)" xlink:href="#l"/><use transform="matrix(0.015190972222222224,0,0,0.015190972222222224,53.988715277777786,0)" xlink:href="#t"/><use transform="matrix(0.015190972222222224,0,0,0.015190972222222224,73.03819444444446,0)" xlink:href="#o"/><use transform="matrix(0.015190972222222224,0,0,0.015190972222222224,82.9123263888889,0)" xlink:href="#p"/><use transform="matrix(0.015190972222222224,0,0,0.015190972222222224,101.05034722222223,0)" xlink:href="#B"/></g><g id="i"><use transform="matrix(0.015190972222222224,0,0,0.015190972222222224,0,0)" xlink:href="#q"/><use transform="matrix(0.015190972222222224,0,0,0.015190972222222224,27.252604166666668,0)" xlink:href="#n"/><use transform="matrix(0.015190972222222224,0,0,0.015190972222222224,45.90711805555556,0)" xlink:href="#D"/><use transform="matrix(0.015190972222222224,0,0,0.015190972222222224,64.95659722222223,0)" xlink:href="#p"/><use transform="matrix(0.015190972222222224,0,0,0.015190972222222224,83.09461805555557,0)" xlink:href="#u"/></g><path d="M409 0L70-1118h191c89 329 165 560 243 925 75-353 154-601 240-925h192c85 325 161 564 235 922 77-354 157-598 244-922h191L1267 0h-179c-86-307-176-590-250-913C763-588 675-308 588 0H409" id="H"/><g id="j"><use transform="matrix(0.015190972222222224,0,0,0.015190972222222224,0,0)" xlink:href="#D"/><use transform="matrix(0.015190972222222224,0,0,0.015190972222222224,19.049479166666668,0)" xlink:href="#B"/><use transform="matrix(0.015190972222222224,0,0,0.015190972222222224,30.76171875,0)" xlink:href="#l"/><use transform="matrix(0.015190972222222224,0,0,0.015190972222222224,48.23133680555556,0)" xlink:href="#H"/><use transform="matrix(0.015190972222222224,0,0,0.015190972222222224,73.69140625,0)" xlink:href="#l"/><use transform="matrix(0.015190972222222224,0,0,0.015190972222222224,91.16102430555556,0)" xlink:href="#E"/><use transform="matrix(0.015190972222222224,0,0,0.015190972222222224,110.21050347222223,0)" xlink:href="#u"/><use transform="matrix(0.015190972222222224,0,0,0.015190972222222224,117.74522569444446,0)" xlink:href="#p"/></g></defs></g></svg>