<svg xmlns="http://www.w3.org/2000/svg" xmlns:xlink="http://www.w3.org/1999/xlink" xmlns:lucid="lucid" width="1617" height="1582.39"><g transform="translate(706.9401312801897 1306.087227142437)" lucid:page-tab-id="0_0"><path d="M-1000-1500h2000V500h-2000z" fill="#fff"/><path d="M-705.94-1245.2a6 6 0 0 1 6-6h1603a6 6 0 0 1 6 6V269.3a6 6 0 0 1-6 6h-1603a6 6 0 0 1-6-6z" stroke="#000" stroke-opacity="0" stroke-width="2" fill="#fff"/><path d="M-705.94-1300.1a6 6 0 0 1 6-6h313.72a6 6 0 0 1 6 6v30.9a6 6 0 0 1-6 6h-313.72a6 6 0 0 1-6-6z" fill-opacity="0"/><use xlink:href="#a" transform="matrix(1,0,0,1,-697.9401312801897,-1298.087227142437) translate(0 21.58376736111111)"/><use xlink:href="#b" transform="matrix(1,0,0,1,-697.9401312801897,-1298.087227142437) translate(109.10373263888889 21.58376736111111)"/><use xlink:href="#c" transform="matrix(1,0,0,1,-697.9401312801897,-1298.087227142437) translate(141.61241319444446 21.58376736111111)"/><path d="M-499.7-707.06c0 10.6-11.92 19.14-26.62 19.14-14.77 0-26.7-8.55-26.7-19.14 0-10.58 11.93-19.14 26.7-19.14 14.7 0 26.63 8.56 26.63 19.14zM-549.2-686.03h46.3c14.23 0 14.23 0 14.23 10.3s0 10.3-14.25 10.3h-46.27c-14.24 0-14.24 0-14.24-10.3s0-10.3 14.25-10.3z" fill="#29aae1"/><path d="M-546.04-668.78h39.37v42.5h-39.37v-42.5z" fill="#29aae1"/><path d="M-546.04-627.9h17.77v46.85h-17.77v-46.84zM-523.16-627.45h16.5v46.1h-16.5v-46.1zM-563.3-678.35h13.5v41.04h-13.5v-41.05zM-502.4-677.77h13.66v41.04h-13.65v-41.04z" fill="#29aae1"/><use xlink:href="#d" transform="matrix(1,0,0,1,-593.4401312801897,-581.1992063091038) translate(30.954861111111107 23.08376736111111)"/><path d="M-625.94-1171.2h200v145h-200z" fill="none"/><path d="M-625.94-1171.2h46.8v17.84h-46.8v-17.84zM-575.14-1171.2h46.6v17.84h-46.6v-17.84zM-523.74-1171.2h46.6v17.84h-46.6v-17.84zM-472.94-1171.2h46.8v17.84h-46.8v-17.84zM-625.54-1150.17h22.8v18.56h-22.8v-18.57zM-597.94-1150.17h46.8v17.83h-46.8v-17.83zM-545.74-1150.17h46.6v17.83h-46.6v-17.83zM-493.34-1150.17h46.8v17.83h-46.8v-17.83zM-442.74-1150.17h16.2v18.56h-16.2v-18.57zM-625.94-1128h46.8v17.7h-46.8v-17.7zM-575.14-1128h46.8v17.7h-46.8v-17.7zM-523.74-1128h46.8v17.7h-46.8v-17.7zM-472.74-1128h46.8v17.7h-46.8v-17.7zM-625.54-1106.67h22.8v18.56h-22.8v-18.57zM-597.94-1106.67h46.8v17.83h-46.8v-17.83zM-545.74-1106.67h46.8v17.83h-46.8v-17.83zM-493.14-1106.67h46.6v17.83h-46.6v-17.83zM-442.54-1106.67h16.2v18.56h-16.2v-18.57zM-625.94-1085.2h46.8v17.82h-46.8v-17.83zM-575.14-1085.2h46.8v17.82h-46.8v-17.83zM-523.74-1085.2h46.8v17.82h-46.8v-17.83zM-472.74-1085.2h46.8v17.82h-46.8v-17.83zM-625.54-1065.35h22.8v18.56h-22.8v-18.55zM-597.94-1065.35h46.8v17.84h-46.8v-17.85zM-545.74-1065.35h46.8v17.84h-46.8v-17.85zM-493.14-1065.35h46.6v17.84h-46.6v-17.85zM-442.54-1065.35h16.2v18.56h-16.2v-18.55zM-625.94-1043.9h46.8v17.85h-46.8v-17.84zM-575.14-1043.9h46.8v17.85h-46.8v-17.84zM-523.74-1043.9h46.8v17.85h-46.8v-17.84zM-472.74-1043.9h46.8v17.85h-46.8v-17.84z" fill="#29aae1"/><use xlink:href="#e" transform="matrix(1,0,0,1,-655.9401312801897,-1026.1992063091038) translate(89.76019965277777 23.08376736111111)"/><path d="M-125.94-1121.2H-1.06v37.7h-124.88v-37.7z" fill="#29aae1"/><path d="M-119.94-1079.17H-7.06v2.93h-112.88v-2.93z" fill="#2188b4"/><path d="M-116.94-1114.54h11.5v4.86h-11.5v-4.86z" fill="#fff"/><path d="M-111.44-1111.25c2.88 0 2.88 0 2.88 2.65v.5c0 2.65 0 2.65-2.88 2.65-2.75 0-2.75 0-2.75-2.65v-.5c0-2.65 0-2.65 2.76-2.65zM-99.06-1114.54h11.5v4.86h-11.5v-4.86z" fill="#fff"/><path d="M-93.44-1111.25c2.75 0 2.75 0 2.75 2.65v.5c0 2.65 0 2.65-2.74 2.65-2.88 0-2.88 0-2.88-2.65v-.5c0-2.65 0-2.65 2.88-2.65zM-80.2-1114.54h11.5v4.86h-11.5v-4.86z" fill="#fff"/><path d="M-74.56-1111.25c2.75 0 2.75 0 2.75 2.65l-.02.5c0 2.65 0 2.65-2.75 2.65-2.87 0-2.87 0-2.87-2.65v-.5c0-2.65 0-2.65 2.88-2.65zM-61.94-1114.54h11.63-.02v4.86h-11.62v-4.86z" fill="#fff"/><path d="M-56.31-1111.25h-.02c2.76 0 2.76 0 2.76 2.65v.5c0 2.65 0 2.65-2.75 2.65h-.02c-2.74 0-2.74 0-2.74-2.65v-.5c0-2.65 0-2.65 2.75-2.65zM-38.81-1118.27h33.48v30.73h-33.5v-30.73z" fill="#fff"/><path d="M-37.7-1117.24h31.14v28.53H-37.7v-28.54z" fill="#54bbe7"/><path d="M-116.7-1099.37h11.64v4.8h-11.63v-4.8z" fill="#fff"/><path d="M-111.06-1096.13c2.75 0 2.75 0 2.75 2.65l-.02.5c0 2.65 0 2.65-2.75 2.65s-2.75 0-2.75-2.65v-.5c0-2.65 0-2.65 2.75-2.65zM-98.81-1099.37h11.6v4.8H-98.8v-4.8z" fill="#fff"/><path d="M-93.2-1096.13c2.76 0 2.76 0 2.76 2.65v.5c0 2.65 0 2.65-2.75 2.65-2.74 0-2.74 0-2.74-2.65v-.5c0-2.65 0-2.65 2.75-2.65zM-79.94-1099.37h11.63-.02v4.8h-11.62v-4.8z" fill="#fff"/><path d="M-74.31-1096.13h-.02c2.75 0 2.75 0 2.75 2.65v.5c0 2.65 0 2.65-2.75 2.65s-2.75 0-2.75-2.65v-.5c0-2.65 0-2.65 2.75-2.65zM-61.56-1099.37h11.62v4.8h-11.63v-4.8z" fill="#fff"/><path d="M-55.94-1096.13c2.75 0 2.75 0 2.75 2.65v.5c0 2.65 0 2.65-2.74 2.65-2.75 0-2.75 0-2.75-2.65v-.5c0-2.65 0-2.65 2.76-2.65zM-34.2-1115.93l-3.1 3.06 3.23 3-.12-6.06zM-34.2-1095.95l-3.1 3.06 3.1 3.02v-6.07zM-10.3-1089.83l3.1-3.02-3.1-3.06v6.07zM-10.2-1109.72l3.13-3.02-3.12-3.06v6.08z" fill="#fff"/><path d="M-34.44-1114.13h4.75v2.43h-4.74v-2.43zM-14.44-1113.9h4.63v2.42h-4.64v-2.43zM-34.44-1094.15h4.62v2.43h-4.62v-2.43zM-14.56-1093.97h4.62v2.43h-4.63v-2.43z" fill="#fff"/><path d="M-31.94-1112.5l2.13-1.63h-.02l17.38 20.97-2.13 1.62-17.37-20.97z" fill="#fff"/><path d="M-14.44-1113.9l2 1.75-17.38 20.47-2.12-1.75 17.5-20.48z" fill="#fff"/><path d="M-21.82-1105.3l2 2.46-.37.27-2-2.47.38-.27zM-24.07-1102.97l2 2.47-.37.27-2-2.47.38-.27z" fill="#54bbe7"/><use xlink:href="#f" transform="matrix(1,0,0,1,-155.9401312801897,-1076.1992063091038) translate(10.268012152777786 21.95095486111111)"/><use xlink:href="#g" transform="matrix(1,0,0,1,-155.9401312801897,-1076.1992063091038) translate(148.16948784722223 21.95095486111111)"/><use xlink:href="#h" transform="matrix(1,0,0,1,-155.9401312801897,-1076.1992063091038) translate(61.09266493055556 54.21657986111111)"/><path d="M371.36-1158.7l-72.3 117.84 150 .84-77.7-118.68z" fill="none"/><path d="M367.3-1040.86c-36.9-.24-67.2-.48-67.2-.6-.14-.12 70.96-116.16 71.26-116.04.15 0 50.4 76.44 74.85 113.88l2.26 3.36-7.05-.12c-3.74 0-37.2-.24-74.1-.48z" fill="#29aae1"/><path d="M337.9-1102.78l68.86-.48-32.1 61.44-36.75-60.96z" fill="none"/><path d="M400.9-1084.18c0 18.72-12.74 33.84-28.64 33.84-15.75 0-28.5-15.12-28.5-33.84 0-18.72 12.75-33.84 28.5-33.84 15.9 0 28.65 15.12 28.65 33.84z" fill="#fff"/><path d="M353.5-1072.06l-19.94-33.48 37.35-.24c20.56-.24 37.5-.24 37.66-.24 0 0-34.65 67.2-34.8 67.44-.15 0-9.15-15-20.25-33.48z" fill="#fff"/><path d="M397.76-1084.42c0 15.24-11.4 27.48-25.5 27.48-13.95 0-25.35-12.24-25.35-27.48 0-15.12 11.4-27.48 25.36-27.48 14.1 0 25.5 12.36 25.5 27.48z" fill="#54bbe7"/><path d="M393.86-1084.42c0 13.08-9.6 23.52-21.3 23.52-11.85 0-21.45-10.44-21.45-23.52 0-12.96 9.6-23.52 21.46-23.52 11.7 0 21.3 10.56 21.3 23.52z" fill="#fff"/><path d="M348.26-1087.54h49.5v3.72h-49.5v-3.72z" fill="#54bbe7"/><path d="M370.76-1110.22h4.35v52.2h-4.34v-52.2z" fill="#54bbe7"/><path d="M353.36-1072.3H394v.84h-40.64v-.84zM349.9-1096.3H391v.84h-41.1v-.84z" fill="#54bbe7"/><use xlink:href="#i" transform="matrix(1,0,0,1,269.0598687198103,-1038.6992063091038) translate(33.662109375 23.08376736111111)"/><use xlink:href="#j" transform="matrix(1,0,0,1,269.0598687198103,-1038.6992063091038) translate(129.00716145833331 23.08376736111111)"/><path d="M-98.24-714.15h69.2v121.3h-69.2v-121.3z" fill="#29aae1"/><path d="M-71.84-629.9h35.2c1.12 0 1.12 0 1.12 1.16 0 1.04 0 1.04-1.12 1.04h-35.2c-1.12 0-1.12 0-1.12-1.04 0-1.17 0-1.17 1.12-1.17zM-71.76-623.8h35.12c1.52 0 1.52 0 1.52 1.56v.4c0 1.55 0 1.55-1.52 1.55h-35.12c-1.52 0-1.52 0-1.52-1.55v-.4c0-1.55 0-1.55 1.52-1.55zM-71.6-616.13h35.12c1.52 0 1.52 0 1.52 1.56v.4c0 1.55 0 1.55-1.52 1.55H-71.6c-1.52 0-1.52 0-1.52-1.56v-.4c0-1.55 0-1.55 1.52-1.55zM-39.52-655.26c0 3.12-2.56 5.72-5.76 5.72-3.12 0-5.68-2.6-5.68-5.72 0-3.12 2.56-5.72 5.68-5.72 3.2 0 5.76 2.6 5.76 5.72z" fill="#fff"/><path d="M-41.84-655.26c0 1.95-1.6 3.5-3.52 3.5s-3.52-1.55-3.52-3.5 1.6-3.5 3.52-3.5 3.52 1.55 3.52 3.5z" fill="#54bbe7"/><path d="M-96.96-718.7h27.84v1.95h-27.84v-1.95zM-65.28-718.7h27.84v2.08h-27.84v-2.08zM-33.68-718.57h9.92v1.95h-9.92v-1.95z" fill="gray"/><path d="M-25.92-716.75h2.16V-704h-2.16v-12.75zM-25.84-700.63h2.16v26h-2.16v-26zM-25.84-670.2h2.24v26h-2.24v-26zM-25.76-640.57h2.24v26h-2.24v-26zM-25.76-610.28h2.24v21.58h-2.24v-21.58z" fill="gray"/><path d="M-33.68-590.65h9.92v1.95h-9.92v-1.95zM-66-590.65h27.84v1.95H-66v-1.95zM-101.6-590.78h30.56v2.08h-30.56v-2.08zM-103.36-718.7h2.24v26.13h-2.24v-26.13zM-103.44-688.4h2.24v26.12h-2.24v-26.13zM-103.44-658.38h2.24v26h-2.24v-26zM-103.44-628.87h2.24v26.13h-2.24v-26.13z" fill="gray"/><path d="M-103.28-598.7h2.24v10h-2.24v-10z" fill="gray"/><use xlink:href="#i" transform="matrix(1,0,0,1,-133.4401312801897,-588.6992063091038) translate(9.046223958333336 21.95095486111111)"/><use xlink:href="#g" transform="matrix(1,0,0,1,-133.4401312801897,-588.6992063091038) translate(104.39127604166666 21.95095486111111)"/><use xlink:href="#k" transform="matrix(1,0,0,1,-133.4401312801897,-588.6992063091038) translate(18.095703125000007 54.21657986111111)"/><path d="M754.26-1159.15h69.2v121.3h-69.2v-121.3z" fill="#29aae1"/><path d="M780.66-1074.9h35.2c1.12 0 1.12 0 1.12 1.16 0 1.04 0 1.04-1.12 1.04h-35.2c-1.12 0-1.12 0-1.12-1.04 0-1.17 0-1.17 1.12-1.17zM780.74-1068.8h35.12c1.52 0 1.52 0 1.52 1.56v.4c0 1.55 0 1.55-1.52 1.55h-35.12c-1.52 0-1.52 0-1.52-1.55v-.4c0-1.55 0-1.55 1.52-1.55zM780.9-1061.13h35.12c1.52 0 1.52 0 1.52 1.56v.4c0 1.55 0 1.55-1.52 1.55H780.9c-1.52 0-1.52 0-1.52-1.56v-.4c0-1.55 0-1.55 1.52-1.55zM812.98-1100.26c0 3.12-2.56 5.72-5.76 5.72-3.12 0-5.68-2.6-5.68-5.72 0-3.12 2.56-5.72 5.68-5.72 3.2 0 5.76 2.6 5.76 5.72z" fill="#fff"/><path d="M810.66-1100.26c0 1.95-1.6 3.5-3.52 3.5s-3.52-1.55-3.52-3.5 1.6-3.5 3.52-3.5 3.52 1.55 3.52 3.5z" fill="#54bbe7"/><path d="M755.54-1163.7h27.84v1.95h-27.84v-1.95zM787.22-1163.7h27.84v2.08h-27.84v-2.08zM818.82-1163.57h9.92v1.95h-9.92v-1.95z" fill="gray"/><path d="M826.58-1161.75h2.16v12.74h-2.16v-12.75zM826.66-1145.63h2.16v26h-2.16v-26zM826.66-1115.2h2.24v26h-2.24v-26zM826.74-1085.57h2.24v26h-2.24v-26zM826.74-1055.28h2.24v21.58h-2.24v-21.58z" fill="gray"/><path d="M818.82-1035.65h9.92v1.95h-9.92v-1.95zM786.5-1035.65h27.84v1.95H786.5v-1.95zM750.9-1035.78h30.56v2.08H750.9v-2.08zM749.14-1163.7h2.24v26.13h-2.24v-26.13zM749.06-1133.4h2.24v26.12h-2.24v-26.13zM749.06-1103.38h2.24v26h-2.24v-26zM749.06-1073.87h2.24v26.13h-2.24v-26.13z" fill="gray"/><path d="M749.22-1043.7h2.24v10h-2.24v-10z" fill="gray"/><use xlink:href="#i" transform="matrix(1,0,0,1,719.0598687198103,-1033.6992063091038) translate(9.046223958333336 21.95095486111111)"/><use xlink:href="#g" transform="matrix(1,0,0,1,719.0598687198103,-1033.6992063091038) translate(104.39127604166666 21.95095486111111)"/><use xlink:href="#k" transform="matrix(1,0,0,1,719.0598687198103,-1033.6992063091038) translate(18.095703125000007 54.21657986111111)"/><path d="M339.06-713.7h70.07v120.12h-70.07V-713.7z" fill="#29aae1"/><path d="M365.8-630.3h35.63c1.12 0 1.12 0 1.12 1.2 0 1.08 0 1.08-1.12 1.08H365.8c-1.2 0-1.2 0-1.2-1.08 0-1.2 0-1.2 1.2-1.2zM365.87-624.18h35.5c1.53 0 1.53 0 1.53 1.56v.36c0 1.56 0 1.56-1.54 1.56h-35.5c-1.6 0-1.6 0-1.6-1.56v-.36c0-1.56 0-1.56 1.6-1.56zM366-616.62h35.57c1.54 0 1.54 0 1.54 1.56v.36c0 1.56 0 1.56-1.53 1.56H366c-1.53 0-1.53 0-1.53-1.56v-.36c0-1.56 0-1.56 1.54-1.56zM398.42-655.38c0 3.12-2.52 5.64-5.74 5.64s-5.8-2.52-5.8-5.64c0-3.12 2.58-5.64 5.8-5.64 3.22 0 5.74 2.52 5.74 5.64z" fill="#fff"/><path d="M396.1-655.38c0 1.92-1.53 3.48-3.5 3.48-1.95 0-3.56-1.56-3.56-3.48s1.6-3.48 3.57-3.48c1.97 0 3.5 1.56 3.5 3.48z" fill="#54bbe7"/><use xlink:href="#i" transform="matrix(1,0,0,1,309.0598687198103,-593.6992063091038) translate(4.046223958333336 21.818142361111114)"/><use xlink:href="#g" transform="matrix(1,0,0,1,309.0598687198103,-593.6992063091038) translate(99.39127604166666 21.818142361111114)"/><use xlink:href="#l" transform="matrix(1,0,0,1,309.0598687198103,-593.6992063091038) translate(15.509982638888893 54.083767361111114)"/><use xlink:href="#g" transform="matrix(1,0,0,1,309.0598687198103,-593.6992063091038) translate(87.92751736111111 54.083767361111114)"/><use xlink:href="#m" transform="matrix(1,0,0,1,309.0598687198103,-593.6992063091038) translate(31.41167534722222 86.34939236111111)"/><path d="M299.06-281.2h150v63h-150v-63z" fill="#29aae1"/><path d="M308.96-214.14H441.7v2.87H308.97v-2.87z" fill="#2188b4"/><path d="M331.6-253.83h63v8.12h-63v-8.13zM322.6-249.9c0 4.96-3.6 9.02-8.1 9.02s-8.1-4.06-8.1-9.03c0-4.9 3.6-8.97 8.1-8.97s8.1 4.06 8.1 8.96z" fill="#fff"/><path d="M320.36-249.7c0 3.57-2.7 6.44-5.85 6.44-3.3 0-5.84-2.87-5.84-6.44 0-3.57 2.55-6.44 5.85-6.44 3.16 0 5.86 2.87 5.86 6.44z" fill="#54bbe7"/><path d="M403.3-272.24h40.66v44.87H403.3v-44.87z" fill="#fff"/><path d="M405.1-270.9h37.2v41.7h-37.2v-41.7z" fill="#54bbe7"/><path d="M440.8-250.26c0 10.64-7.8 19.25-17.4 19.25-9.6 0-17.4-8.62-17.4-19.26 0-10.64 7.8-19.25 17.4-19.25 9.6 0 17.4 8.6 17.4 19.24z" fill="#fff"/><path d="M438.7-250.26c0 9.24-6.74 16.66-15.14 16.66-8.25 0-15-7.42-15-16.66 0-9.17 6.75-16.66 15-16.66 8.4 0 15.15 7.5 15.15 16.66z" fill="#54bbe7"/><path d="M426.4-250.33c0 1.75-1.2 3.22-2.84 3.22-1.65 0-3-1.48-3-3.23s1.35-3.22 3-3.22 2.85 1.47 2.85 3.22zM428.36-259.22l3.3-4.55s-.45-1.54 1.8 2.52c2.4 4.06 4.05 8.12 4.2 10.15.15 2.03 1.05 6.1-2.55 10.15-3.6 4.06-3.9 4.2-3.9 4.2l-2.4-5.4s.9-.34 1.2-2.37c.16-2.03 1.06-2.17.76-5.88-.3-3.78-.45-5.25-.45-5.25l-1.94-3.57zM418.9-259.3l-3.3-4.54s.46-1.54-1.8 2.52c-2.4 4.06-4.2 8.12-4.2 10.15-.14 2.03-1.2 6.16 2.56 10.22 3.6 4.06 3.9 4.2 3.9 4.2l2.55-5.4s-1.04-.34-1.34-2.37c-.15-2.03-1.05-2.24-.75-5.95.3-3.7.46-5.25.46-5.25l1.95-3.57z" fill="#fff"/><use xlink:href="#n" transform="matrix(1,0,0,1,269.0598687198103,-211.19920630910383) translate(27.56401909722223 21.95095486111111)"/><use xlink:href="#o" transform="matrix(1,0,0,1,269.0598687198103,-211.19920630910383) translate(156.82834201388889 21.95095486111111)"/><use xlink:href="#p" transform="matrix(1,0,0,1,269.0598687198103,-211.19920630910383) translate(67.82009548611111 54.21657986111111)"/><path d="M299.06 88.8h150v63h-150v-63z" fill="#29aae1"/><path d="M308.96 155.86H441.7v2.87H308.97v-2.87z" fill="#2188b4"/><path d="M331.6 116.17h63v8.12h-63v-8.13zM322.6 120.1c0 4.96-3.6 9.02-8.1 9.02s-8.1-4.06-8.1-9.03c0-4.9 3.6-8.97 8.1-8.97s8.1 4.06 8.1 8.96z" fill="#fff"/><path d="M320.36 120.3c0 3.57-2.7 6.44-5.85 6.44-3.3 0-5.84-2.87-5.84-6.44 0-3.57 2.55-6.44 5.85-6.44 3.16 0 5.86 2.87 5.86 6.44z" fill="#54bbe7"/><path d="M403.3 97.76h40.66v44.87H403.3V97.76z" fill="#fff"/><path d="M405.1 99.1h37.2v41.7h-37.2V99.1z" fill="#54bbe7"/><path d="M440.8 119.74c0 10.64-7.8 19.25-17.4 19.25-9.6 0-17.4-8.62-17.4-19.26 0-10.64 7.8-19.25 17.4-19.25 9.6 0 17.4 8.6 17.4 19.24z" fill="#fff"/><path d="M438.7 119.74c0 9.24-6.74 16.66-15.14 16.66-8.25 0-15-7.42-15-16.66 0-9.17 6.75-16.66 15-16.66 8.4 0 15.15 7.5 15.15 16.66z" fill="#54bbe7"/><path d="M426.4 119.67c0 1.75-1.2 3.22-2.84 3.22-1.65 0-3-1.48-3-3.23s1.35-3.22 3-3.22 2.85 1.47 2.85 3.22zM428.36 110.78l3.3-4.55s-.45-1.54 1.8 2.52c2.4 4.06 4.05 8.12 4.2 10.15.15 2.03 1.05 6.1-2.55 10.15-3.6 4.06-3.9 4.2-3.9 4.2l-2.4-5.4s.9-.34 1.2-2.37c.16-2.03 1.06-2.17.76-5.88-.3-3.78-.45-5.25-.45-5.25l-1.94-3.57zM418.9 110.7l-3.3-4.54s.46-1.54-1.8 2.52c-2.4 4.06-4.2 8.12-4.2 10.15-.14 2.03-1.2 6.16 2.56 10.22 3.6 4.06 3.9 4.2 3.9 4.2l2.55-5.4s-1.04-.34-1.34-2.37c-.15-2.03-1.05-2.24-.75-5.95.3-3.7.46-5.25.46-5.25l1.95-3.57z" fill="#fff"/><use xlink:href="#i" transform="matrix(1,0,0,1,269.0598687198103,158.80079369089617) translate(1.592881944444457 23.08376736111111)"/><use xlink:href="#q" transform="matrix(1,0,0,1,269.0598687198103,158.80079369089617) translate(96.93793402777779 23.08376736111111)"/><use xlink:href="#r" transform="matrix(1,0,0,1,269.0598687198103,158.80079369089617) translate(129.75043402777777 23.08376736111111)"/><path d="M-525.47-726.66h-.94v-274.98h.93zm0-295.98h-.94v-8.5h.93z" stroke="#3a414a" stroke-width=".05" fill="#3a414a"/><path d="M-525.47-726.12l-.85-.08h-.1v-.48h.95z" fill="#3a414a"/><path stroke="#3a414a" stroke-width=".05" fill="#3a414a"/><path d="M-521.3-1031.63h-9.28l4.64-14.27z" fill="#3a414a"/><path d="M-520.65-1031.15h-10.58l5.3-16.28zm-9.27-.95h7.96l-3.98-12.26z" stroke="#3a414a" stroke-width=".05" fill="#3a414a"/><path d="M-425.84-1098.7h283.52" stroke="#3a414a" fill="none"/><path d="M-425.83-1098.22h-.5v-.95h.5z" stroke="#3a414a" stroke-width=".05" fill="#3a414a"/><path d="M-127.56-1098.7l-14.26 4.64v-9.27z" stroke="#3a414a" fill="#3a414a"/><path d="M-.56-1098.7h319.4" stroke="#3a414a" fill="none"/><path d="M-.55-1098.22h-.5v-.95h.5z" stroke="#3a414a" stroke-width=".05" fill="#3a414a"/><path d="M333.6-1098.7l-14.27 4.64v-9.27z" stroke="#3a414a" fill="#3a414a"/><path d="M-62.97-735.08h-.95v-279.43h.95zm0-337.7h-.95v-2.96h.95z" stroke="#3a414a" stroke-width=".05" fill="#3a414a"/><path d="M-62.97-1075.73h-.95v-.5h.95zm0-3.44h-.95l.95-.07z" fill="#3a414a"/><path stroke="#3a414a" stroke-width=".05" fill="#3a414a"/><path d="M-63.44-720.32l-4.64-14.26h9.27z" fill="#3a414a"/><path d="M-63.44-718.78l-5.3-16.28h10.6zm-3.98-15.33l3.98 12.25 3.98-12.26z" stroke="#3a414a" stroke-width=".05" fill="#3a414a"/><path d="M410.52-1098.7h322.16" stroke="#3a414a" fill="none"/><path d="M410.53-1098.22h-.2l-.63-.95h.83z" stroke="#3a414a" stroke-width=".05" fill="#3a414a"/><path d="M747.44-1098.7l-14.26 4.64v-9.27z" stroke="#3a414a" fill="#3a414a"/><path d="M-23.1-653.7h345.78" stroke="#3a414a" fill="none"/><path d="M-25.84-653.22h-.76v-.95h.76zm2.75 0h-.5v-.95h.5z" stroke="#3a414a" stroke-width=".05" fill="#3a414a"/><path d="M337.44-653.7l-14.26 4.64v-9.27z" stroke="#3a414a" fill="#3a414a"/><path d="M789.53-882.18l-.07 1-.24.98-.4.94-.52.87-.66.78-.77.66-.87.53-.94.4-1 .23-.98.08h-403l-.88.07-.85.2-.8.33-.74.45-.65.56-.56.65-.46.74-.33.8-.2.84-.06.88v140.1h-.96v-140.14l.08-1 .24-.98.4-.94.52-.87.66-.78.77-.66.87-.53.94-.4 1-.23.98-.07h403l.88-.07.85-.2.8-.34.74-.45.67-.56.56-.65.45-.74.33-.8.22-.84.07-.88v-90.8h.93zm0-149.1h-.94v-1.92h.93z" stroke="#3a414a" stroke-width=".05" fill="#3a414a"/><path d="M789.53-1033.2h-.94v-.5h.93zm0-2.45h-.94v-1.05h.93z" fill="#3a414a"/><path stroke="#3a414a" stroke-width=".05" fill="#3a414a"/><path d="M374.06-715.32l-4.63-14.26h9.26z" fill="#3a414a"/><path d="M374.06-713.78l-5.3-16.28h10.6zm-3.98-15.33l3.98 12.25 3.98-12.26zM374.54-297.58h-.96v-207.3h.96zm0-293.83h-.96v-1.68h.96z" stroke="#3a414a" stroke-width=".05" fill="#3a414a"/><path d="M374.54-593.07h-.96v-.5h.96z" fill="#3a414a"/><path stroke="#3a414a" stroke-width=".05" fill="#3a414a"/><path d="M374.06-282.82l-4.63-14.26h9.26z" fill="#3a414a"/><path d="M374.06-281.28l-5.3-16.28h10.6zm-3.98-15.33l3.98 12.25 3.98-12.26zM594.07-654.1l1 .24.93.4.87.52.77.66.66.77.53.86.4.94.23 1 .07.98v765.54l-.07 1-.24.98-.4.94-.52.87-.66.78-.77.66-.87.53-.94.4-1 .23-.98.08H465.44v-.95h127.6l.88-.07.85-.2.8-.34.74-.45.67-.56.56-.65.45-.74.33-.8.22-.83.07-.9v-765.45l-.1-.88-.2-.85-.32-.8-.45-.75-.56-.65-.66-.57-.73-.45-.8-.33-.85-.2-.88-.07h-183.4v-.95h183.44z" stroke="#3a414a" stroke-width=".05" fill="#3a414a"/><path d="M409.64-653.22h-.5v-.95h.5z" fill="#3a414a"/><path stroke="#3a414a" stroke-width=".05" fill="#3a414a"/><path d="M464.94 128.44l-14.26-4.64 14.26-4.63z" fill="#3a414a"/><path d="M465.42 129.1l-16.28-5.3 16.28-5.3zm-13.2-5.3l12.25 3.98v-7.96zM374.54 72.42h-.96V-154.5h.96zm0-280.2h-.96v-3h.96z" stroke="#3a414a" stroke-width=".05" fill="#3a414a"/><path d="M374.54-210.76h-.96v-.5h.96zm0-3.38h-.96v-.13h.96z" fill="#3a414a"/><path stroke="#3a414a" stroke-width=".05" fill="#3a414a"/><path d="M374.06 87.18l-4.63-14.26h9.26z" fill="#3a414a"/><path d="M374.06 88.72l-5.3-16.28h10.6zm-3.98-15.33l3.98 12.25 3.98-12.26z" stroke="#3a414a" stroke-width=".05" fill="#3a414a"/><path d="M-705.94-1245.2a6 6 0 0 1 6-6h1603a6 6 0 0 1 6 6V269.3a6 6 0 0 1-6 6h-1603a6 6 0 0 1-6-6z" stroke="#000" stroke-opacity="0" stroke-width="2" fill="#fff"/><path d="M-705.94-1300.1a6 6 0 0 1 6-6h313.72a6 6 0 0 1 6 6v30.9a6 6 0 0 1-6 6h-313.72a6 6 0 0 1-6-6z" fill-opacity="0"/><use xlink:href="#a" transform="matrix(1,0,0,1,-697.9401312801897,-1298.087227142437) translate(0 21.58376736111111)"/><use xlink:href="#b" transform="matrix(1,0,0,1,-697.9401312801897,-1298.087227142437) translate(109.10373263888889 21.58376736111111)"/><use xlink:href="#c" transform="matrix(1,0,0,1,-697.9401312801897,-1298.087227142437) translate(141.61241319444446 21.58376736111111)"/><path d="M-499.7-707.06c0 10.6-11.92 19.14-26.62 19.14-14.77 0-26.7-8.55-26.7-19.14 0-10.58 11.93-19.14 26.7-19.14 14.7 0 26.63 8.56 26.63 19.14zM-549.2-686.03h46.3c14.23 0 14.23 0 14.23 10.3s0 10.3-14.25 10.3h-46.27c-14.24 0-14.24 0-14.24-10.3s0-10.3 14.25-10.3z" fill="#29aae1"/><path d="M-546.04-668.78h39.37v42.5h-39.37v-42.5z" fill="#29aae1"/><path d="M-546.04-627.9h17.77v46.85h-17.77v-46.84zM-523.16-627.45h16.5v46.1h-16.5v-46.1zM-563.3-678.35h13.5v41.04h-13.5v-41.05zM-502.4-677.77h13.66v41.04h-13.65v-41.04z" fill="#29aae1"/><use xlink:href="#d" transform="matrix(1,0,0,1,-593.4401312801897,-581.1992063091038) translate(30.954861111111107 23.08376736111111)"/><path d="M-625.94-1171.2h200v145h-200z" fill="none"/><path d="M-625.94-1171.2h46.8v17.84h-46.8v-17.84zM-575.14-1171.2h46.6v17.84h-46.6v-17.84zM-523.74-1171.2h46.6v17.84h-46.6v-17.84zM-472.94-1171.2h46.8v17.84h-46.8v-17.84zM-625.54-1150.17h22.8v18.56h-22.8v-18.57zM-597.94-1150.17h46.8v17.83h-46.8v-17.83zM-545.74-1150.17h46.6v17.83h-46.6v-17.83zM-493.34-1150.17h46.8v17.83h-46.8v-17.83zM-442.74-1150.17h16.2v18.56h-16.2v-18.57zM-625.94-1128h46.8v17.7h-46.8v-17.7zM-575.14-1128h46.8v17.7h-46.8v-17.7zM-523.74-1128h46.8v17.7h-46.8v-17.7zM-472.74-1128h46.8v17.7h-46.8v-17.7zM-625.54-1106.67h22.8v18.56h-22.8v-18.57zM-597.94-1106.67h46.8v17.83h-46.8v-17.83zM-545.74-1106.67h46.8v17.83h-46.8v-17.83zM-493.14-1106.67h46.6v17.83h-46.6v-17.83zM-442.54-1106.67h16.2v18.56h-16.2v-18.57zM-625.94-1085.2h46.8v17.82h-46.8v-17.83zM-575.14-1085.2h46.8v17.82h-46.8v-17.83zM-523.74-1085.2h46.8v17.82h-46.8v-17.83zM-472.74-1085.2h46.8v17.82h-46.8v-17.83zM-625.54-1065.35h22.8v18.56h-22.8v-18.55zM-597.94-1065.35h46.8v17.84h-46.8v-17.85zM-545.74-1065.35h46.8v17.84h-46.8v-17.85zM-493.14-1065.35h46.6v17.84h-46.6v-17.85zM-442.54-1065.35h16.2v18.56h-16.2v-18.55zM-625.94-1043.9h46.8v17.85h-46.8v-17.84zM-575.14-1043.9h46.8v17.85h-46.8v-17.84zM-523.74-1043.9h46.8v17.85h-46.8v-17.84zM-472.74-1043.9h46.8v17.85h-46.8v-17.84z" fill="#29aae1"/><use xlink:href="#e" transform="matrix(1,0,0,1,-655.9401312801897,-1026.1992063091038) translate(89.76019965277777 23.08376736111111)"/><path d="M-125.94-1121.2H-1.06v37.7h-124.88v-37.7z" fill="#29aae1"/><path d="M-119.94-1079.17H-7.06v2.93h-112.88v-2.93z" fill="#2188b4"/><path d="M-116.94-1114.54h11.5v4.86h-11.5v-4.86z" fill="#fff"/><path d="M-111.44-1111.25c2.88 0 2.88 0 2.88 2.65v.5c0 2.65 0 2.65-2.88 2.65-2.75 0-2.75 0-2.75-2.65v-.5c0-2.65 0-2.65 2.76-2.65zM-99.06-1114.54h11.5v4.86h-11.5v-4.86z" fill="#fff"/><path d="M-93.44-1111.25c2.75 0 2.75 0 2.75 2.65v.5c0 2.65 0 2.65-2.74 2.65-2.88 0-2.88 0-2.88-2.65v-.5c0-2.65 0-2.65 2.88-2.65zM-80.2-1114.54h11.5v4.86h-11.5v-4.86z" fill="#fff"/><path d="M-74.56-1111.25c2.75 0 2.75 0 2.75 2.65l-.02.5c0 2.65 0 2.65-2.75 2.65-2.87 0-2.87 0-2.87-2.65v-.5c0-2.65 0-2.65 2.88-2.65zM-61.94-1114.54h11.63-.02v4.86h-11.62v-4.86z" fill="#fff"/><path d="M-56.31-1111.25h-.02c2.76 0 2.76 0 2.76 2.65v.5c0 2.65 0 2.65-2.75 2.65h-.02c-2.74 0-2.74 0-2.74-2.65v-.5c0-2.65 0-2.65 2.75-2.65zM-38.81-1118.27h33.48v30.73h-33.5v-30.73z" fill="#fff"/><path d="M-37.7-1117.24h31.14v28.53H-37.7v-28.54z" fill="#54bbe7"/><path d="M-116.7-1099.37h11.64v4.8h-11.63v-4.8z" fill="#fff"/><path d="M-111.06-1096.13c2.75 0 2.75 0 2.75 2.65l-.02.5c0 2.65 0 2.65-2.75 2.65s-2.75 0-2.75-2.65v-.5c0-2.65 0-2.65 2.75-2.65zM-98.81-1099.37h11.6v4.8H-98.8v-4.8z" fill="#fff"/><path d="M-93.2-1096.13c2.76 0 2.76 0 2.76 2.65v.5c0 2.65 0 2.65-2.75 2.65-2.74 0-2.74 0-2.74-2.65v-.5c0-2.65 0-2.65 2.75-2.65zM-79.94-1099.37h11.63-.02v4.8h-11.62v-4.8z" fill="#fff"/><path d="M-74.31-1096.13h-.02c2.75 0 2.75 0 2.75 2.65v.5c0 2.65 0 2.65-2.75 2.65s-2.75 0-2.75-2.65v-.5c0-2.65 0-2.65 2.75-2.65zM-61.56-1099.37h11.62v4.8h-11.63v-4.8z" fill="#fff"/><path d="M-55.94-1096.13c2.75 0 2.75 0 2.75 2.65v.5c0 2.65 0 2.65-2.74 2.65-2.75 0-2.75 0-2.75-2.65v-.5c0-2.65 0-2.65 2.76-2.65zM-34.2-1115.93l-3.1 3.06 3.23 3-.12-6.06zM-34.2-1095.95l-3.1 3.06 3.1 3.02v-6.07zM-10.3-1089.83l3.1-3.02-3.1-3.06v6.07zM-10.2-1109.72l3.13-3.02-3.12-3.06v6.08z" fill="#fff"/><path d="M-34.44-1114.13h4.75v2.43h-4.74v-2.43zM-14.44-1113.9h4.63v2.42h-4.64v-2.43zM-34.44-1094.15h4.62v2.43h-4.62v-2.43zM-14.56-1093.97h4.62v2.43h-4.63v-2.43z" fill="#fff"/><path d="M-31.94-1112.5l2.13-1.63h-.02l17.38 20.97-2.13 1.62-17.37-20.97z" fill="#fff"/><path d="M-14.44-1113.9l2 1.75-17.38 20.47-2.12-1.75 17.5-20.48z" fill="#fff"/><path d="M-21.82-1105.3l2 2.46-.37.27-2-2.47.38-.27zM-24.07-1102.97l2 2.47-.37.27-2-2.47.38-.27z" fill="#54bbe7"/><use xlink:href="#f" transform="matrix(1,0,0,1,-155.9401312801897,-1076.1992063091038) translate(10.268012152777786 21.95095486111111)"/><use xlink:href="#g" transform="matrix(1,0,0,1,-155.9401312801897,-1076.1992063091038) translate(148.16948784722223 21.95095486111111)"/><use xlink:href="#h" transform="matrix(1,0,0,1,-155.9401312801897,-1076.1992063091038) translate(61.09266493055556 54.21657986111111)"/><path d="M371.36-1158.7l-72.3 117.84 150 .84-77.7-118.68z" fill="none"/><path d="M367.3-1040.86c-36.9-.24-67.2-.48-67.2-.6-.14-.12 70.96-116.16 71.26-116.04.15 0 50.4 76.44 74.85 113.88l2.26 3.36-7.05-.12c-3.74 0-37.2-.24-74.1-.48z" fill="#29aae1"/><path d="M337.9-1102.78l68.86-.48-32.1 61.44-36.75-60.96z" fill="none"/><path d="M400.9-1084.18c0 18.72-12.74 33.84-28.64 33.84-15.75 0-28.5-15.12-28.5-33.84 0-18.72 12.75-33.84 28.5-33.84 15.9 0 28.65 15.12 28.65 33.84z" fill="#fff"/><path d="M353.5-1072.06l-19.94-33.48 37.35-.24c20.56-.24 37.5-.24 37.66-.24 0 0-34.65 67.2-34.8 67.44-.15 0-9.15-15-20.25-33.48z" fill="#fff"/><path d="M397.76-1084.42c0 15.24-11.4 27.48-25.5 27.48-13.95 0-25.35-12.24-25.35-27.48 0-15.12 11.4-27.48 25.36-27.48 14.1 0 25.5 12.36 25.5 27.48z" fill="#54bbe7"/><path d="M393.86-1084.42c0 13.08-9.6 23.52-21.3 23.52-11.85 0-21.45-10.44-21.45-23.52 0-12.96 9.6-23.52 21.46-23.52 11.7 0 21.3 10.56 21.3 23.52z" fill="#fff"/><path d="M348.26-1087.54h49.5v3.72h-49.5v-3.72z" fill="#54bbe7"/><path d="M370.76-1110.22h4.35v52.2h-4.34v-52.2z" fill="#54bbe7"/><path d="M353.36-1072.3H394v.84h-40.64v-.84zM349.9-1096.3H391v.84h-41.1v-.84z" fill="#54bbe7"/><use xlink:href="#i" transform="matrix(1,0,0,1,269.0598687198103,-1038.6992063091038) translate(33.662109375 23.08376736111111)"/><use xlink:href="#j" transform="matrix(1,0,0,1,269.0598687198103,-1038.6992063091038) translate(129.00716145833331 23.08376736111111)"/><path d="M-98.24-714.15h69.2v121.3h-69.2v-121.3z" fill="#29aae1"/><path d="M-71.84-629.9h35.2c1.12 0 1.12 0 1.12 1.16 0 1.04 0 1.04-1.12 1.04h-35.2c-1.12 0-1.12 0-1.12-1.04 0-1.17 0-1.17 1.12-1.17zM-71.76-623.8h35.12c1.52 0 1.52 0 1.52 1.56v.4c0 1.55 0 1.55-1.52 1.55h-35.12c-1.52 0-1.52 0-1.52-1.55v-.4c0-1.55 0-1.55 1.52-1.55zM-71.6-616.13h35.12c1.52 0 1.52 0 1.52 1.56v.4c0 1.55 0 1.55-1.52 1.55H-71.6c-1.52 0-1.52 0-1.52-1.56v-.4c0-1.55 0-1.55 1.52-1.55zM-39.52-655.26c0 3.12-2.56 5.72-5.76 5.72-3.12 0-5.68-2.6-5.68-5.72 0-3.12 2.56-5.72 5.68-5.72 3.2 0 5.76 2.6 5.76 5.72z" fill="#fff"/><path d="M-41.84-655.26c0 1.95-1.6 3.5-3.52 3.5s-3.52-1.55-3.52-3.5 1.6-3.5 3.52-3.5 3.52 1.55 3.52 3.5z" fill="#54bbe7"/><path d="M-96.96-718.7h27.84v1.95h-27.84v-1.95zM-65.28-718.7h27.84v2.08h-27.84v-2.08zM-33.68-718.57h9.92v1.95h-9.92v-1.95z" fill="gray"/><path d="M-25.92-716.75h2.16V-704h-2.16v-12.75zM-25.84-700.63h2.16v26h-2.16v-26zM-25.84-670.2h2.24v26h-2.24v-26zM-25.76-640.57h2.24v26h-2.24v-26zM-25.76-610.28h2.24v21.58h-2.24v-21.58z" fill="gray"/><path d="M-33.68-590.65h9.92v1.95h-9.92v-1.95zM-66-590.65h27.84v1.95H-66v-1.95zM-101.6-590.78h30.56v2.08h-30.56v-2.08zM-103.36-718.7h2.24v26.13h-2.24v-26.13zM-103.44-688.4h2.24v26.12h-2.24v-26.13zM-103.44-658.38h2.24v26h-2.24v-26zM-103.44-628.87h2.24v26.13h-2.24v-26.13z" fill="gray"/><path d="M-103.28-598.7h2.24v10h-2.24v-10z" fill="gray"/><use xlink:href="#i" transform="matrix(1,0,0,1,-133.4401312801897,-588.6992063091038) translate(9.046223958333336 21.95095486111111)"/><use xlink:href="#g" transform="matrix(1,0,0,1,-133.4401312801897,-588.6992063091038) translate(104.39127604166666 21.95095486111111)"/><use xlink:href="#k" transform="matrix(1,0,0,1,-133.4401312801897,-588.6992063091038) translate(18.095703125000007 54.21657986111111)"/><path d="M754.26-1159.15h69.2v121.3h-69.2v-121.3z" fill="#29aae1"/><path d="M780.66-1074.9h35.2c1.12 0 1.12 0 1.12 1.16 0 1.04 0 1.04-1.12 1.04h-35.2c-1.12 0-1.12 0-1.12-1.04 0-1.17 0-1.17 1.12-1.17zM780.74-1068.8h35.12c1.52 0 1.52 0 1.52 1.56v.4c0 1.55 0 1.55-1.52 1.55h-35.12c-1.52 0-1.52 0-1.52-1.55v-.4c0-1.55 0-1.55 1.52-1.55zM780.9-1061.13h35.12c1.52 0 1.52 0 1.52 1.56v.4c0 1.55 0 1.55-1.52 1.55H780.9c-1.52 0-1.52 0-1.52-1.56v-.4c0-1.55 0-1.55 1.52-1.55zM812.98-1100.26c0 3.12-2.56 5.72-5.76 5.72-3.12 0-5.68-2.6-5.68-5.72 0-3.12 2.56-5.72 5.68-5.72 3.2 0 5.76 2.6 5.76 5.72z" fill="#fff"/><path d="M810.66-1100.26c0 1.95-1.6 3.5-3.52 3.5s-3.52-1.55-3.52-3.5 1.6-3.5 3.52-3.5 3.52 1.55 3.52 3.5z" fill="#54bbe7"/><path d="M755.54-1163.7h27.84v1.95h-27.84v-1.95zM787.22-1163.7h27.84v2.08h-27.84v-2.08zM818.82-1163.57h9.92v1.95h-9.92v-1.95z" fill="gray"/><path d="M826.58-1161.75h2.16v12.74h-2.16v-12.75zM826.66-1145.63h2.16v26h-2.16v-26zM826.66-1115.2h2.24v26h-2.24v-26zM826.74-1085.57h2.24v26h-2.24v-26zM826.74-1055.28h2.24v21.58h-2.24v-21.58z" fill="gray"/><path d="M818.82-1035.65h9.92v1.95h-9.92v-1.95zM786.5-1035.65h27.84v1.95H786.5v-1.95zM750.9-1035.78h30.56v2.08H750.9v-2.08zM749.14-1163.7h2.24v26.13h-2.24v-26.13zM749.06-1133.4h2.24v26.12h-2.24v-26.13zM749.06-1103.38h2.24v26h-2.24v-26zM749.06-1073.87h2.24v26.13h-2.24v-26.13z" fill="gray"/><path d="M749.22-1043.7h2.24v10h-2.24v-10z" fill="gray"/><use xlink:href="#i" transform="matrix(1,0,0,1,719.0598687198103,-1033.6992063091038) translate(9.046223958333336 21.95095486111111)"/><use xlink:href="#g" transform="matrix(1,0,0,1,719.0598687198103,-1033.6992063091038) translate(104.39127604166666 21.95095486111111)"/><use xlink:href="#k" transform="matrix(1,0,0,1,719.0598687198103,-1033.6992063091038) translate(18.095703125000007 54.21657986111111)"/><path d="M339.06-713.7h70.07v120.12h-70.07V-713.7z" fill="#29aae1"/><path d="M365.8-630.3h35.63c1.12 0 1.12 0 1.12 1.2 0 1.08 0 1.08-1.12 1.08H365.8c-1.2 0-1.2 0-1.2-1.08 0-1.2 0-1.2 1.2-1.2zM365.87-624.18h35.5c1.53 0 1.53 0 1.53 1.56v.36c0 1.56 0 1.56-1.54 1.56h-35.5c-1.6 0-1.6 0-1.6-1.56v-.36c0-1.56 0-1.56 1.6-1.56zM366-616.62h35.57c1.54 0 1.54 0 1.54 1.56v.36c0 1.56 0 1.56-1.53 1.56H366c-1.53 0-1.53 0-1.53-1.56v-.36c0-1.56 0-1.56 1.54-1.56zM398.42-655.38c0 3.12-2.52 5.64-5.74 5.64s-5.8-2.52-5.8-5.64c0-3.12 2.58-5.64 5.8-5.64 3.22 0 5.74 2.52 5.74 5.64z" fill="#fff"/><path d="M396.1-655.38c0 1.92-1.53 3.48-3.5 3.48-1.95 0-3.56-1.56-3.56-3.48s1.6-3.48 3.57-3.48c1.97 0 3.5 1.56 3.5 3.48z" fill="#54bbe7"/><use xlink:href="#i" transform="matrix(1,0,0,1,309.0598687198103,-593.6992063091038) translate(4.046223958333336 21.818142361111114)"/><use xlink:href="#g" transform="matrix(1,0,0,1,309.0598687198103,-593.6992063091038) translate(99.39127604166666 21.818142361111114)"/><use xlink:href="#l" transform="matrix(1,0,0,1,309.0598687198103,-593.6992063091038) translate(15.509982638888893 54.083767361111114)"/><use xlink:href="#g" transform="matrix(1,0,0,1,309.0598687198103,-593.6992063091038) translate(87.92751736111111 54.083767361111114)"/><use xlink:href="#m" transform="matrix(1,0,0,1,309.0598687198103,-593.6992063091038) translate(31.41167534722222 86.34939236111111)"/><path d="M299.06-281.2h150v63h-150v-63z" fill="#29aae1"/><path d="M308.96-214.14H441.7v2.87H308.97v-2.87z" fill="#2188b4"/><path d="M331.6-253.83h63v8.12h-63v-8.13zM322.6-249.9c0 4.96-3.6 9.02-8.1 9.02s-8.1-4.06-8.1-9.03c0-4.9 3.6-8.97 8.1-8.97s8.1 4.06 8.1 8.96z" fill="#fff"/><path d="M320.36-249.7c0 3.57-2.7 6.44-5.85 6.44-3.3 0-5.84-2.87-5.84-6.44 0-3.57 2.55-6.44 5.85-6.44 3.16 0 5.86 2.87 5.86 6.44z" fill="#54bbe7"/><path d="M403.3-272.24h40.66v44.87H403.3v-44.87z" fill="#fff"/><path d="M405.1-270.9h37.2v41.7h-37.2v-41.7z" fill="#54bbe7"/><path d="M440.8-250.26c0 10.64-7.8 19.25-17.4 19.25-9.6 0-17.4-8.62-17.4-19.26 0-10.64 7.8-19.25 17.4-19.25 9.6 0 17.4 8.6 17.4 19.24z" fill="#fff"/><path d="M438.7-250.26c0 9.24-6.74 16.66-15.14 16.66-8.25 0-15-7.42-15-16.66 0-9.17 6.75-16.66 15-16.66 8.4 0 15.15 7.5 15.15 16.66z" fill="#54bbe7"/><path d="M426.4-250.33c0 1.75-1.2 3.22-2.84 3.22-1.65 0-3-1.48-3-3.23s1.35-3.22 3-3.22 2.85 1.47 2.85 3.22zM428.36-259.22l3.3-4.55s-.45-1.54 1.8 2.52c2.4 4.06 4.05 8.12 4.2 10.15.15 2.03 1.05 6.1-2.55 10.15-3.6 4.06-3.9 4.2-3.9 4.2l-2.4-5.4s.9-.34 1.2-2.37c.16-2.03 1.06-2.17.76-5.88-.3-3.78-.45-5.25-.45-5.25l-1.94-3.57zM418.9-259.3l-3.3-4.54s.46-1.54-1.8 2.52c-2.4 4.06-4.2 8.12-4.2 10.15-.14 2.03-1.2 6.16 2.56 10.22 3.6 4.06 3.9 4.2 3.9 4.2l2.55-5.4s-1.04-.34-1.34-2.37c-.15-2.03-1.05-2.24-.75-5.95.3-3.7.46-5.25.46-5.25l1.95-3.57z" fill="#fff"/><use xlink:href="#n" transform="matrix(1,0,0,1,269.0598687198103,-211.19920630910383) translate(27.56401909722223 21.95095486111111)"/><use xlink:href="#o" transform="matrix(1,0,0,1,269.0598687198103,-211.19920630910383) translate(156.82834201388889 21.95095486111111)"/><use xlink:href="#p" transform="matrix(1,0,0,1,269.0598687198103,-211.19920630910383) translate(67.82009548611111 54.21657986111111)"/><path d="M299.06 88.8h150v63h-150v-63z" fill="#29aae1"/><path d="M308.96 155.86H441.7v2.87H308.97v-2.87z" fill="#2188b4"/><path d="M331.6 116.17h63v8.12h-63v-8.13zM322.6 120.1c0 4.96-3.6 9.02-8.1 9.02s-8.1-4.06-8.1-9.03c0-4.9 3.6-8.97 8.1-8.97s8.1 4.06 8.1 8.96z" fill="#fff"/><path d="M320.36 120.3c0 3.57-2.7 6.44-5.85 6.44-3.3 0-5.84-2.87-5.84-6.44 0-3.57 2.55-6.44 5.85-6.44 3.16 0 5.86 2.87 5.86 6.44z" fill="#54bbe7"/><path d="M403.3 97.76h40.66v44.87H403.3V97.76z" fill="#fff"/><path d="M405.1 99.1h37.2v41.7h-37.2V99.1z" fill="#54bbe7"/><path d="M440.8 119.74c0 10.64-7.8 19.25-17.4 19.25-9.6 0-17.4-8.62-17.4-19.26 0-10.64 7.8-19.25 17.4-19.25 9.6 0 17.4 8.6 17.4 19.24z" fill="#fff"/><path d="M438.7 119.74c0 9.24-6.74 16.66-15.14 16.66-8.25 0-15-7.42-15-16.66 0-9.17 6.75-16.66 15-16.66 8.4 0 15.15 7.5 15.15 16.66z" fill="#54bbe7"/><path d="M426.4 119.67c0 1.75-1.2 3.22-2.84 3.22-1.65 0-3-1.48-3-3.23s1.35-3.22 3-3.22 2.85 1.47 2.85 3.22zM428.36 110.78l3.3-4.55s-.45-1.54 1.8 2.52c2.4 4.06 4.05 8.12 4.2 10.15.15 2.03 1.05 6.1-2.55 10.15-3.6 4.06-3.9 4.2-3.9 4.2l-2.4-5.4s.9-.34 1.2-2.37c.16-2.03 1.06-2.17.76-5.88-.3-3.78-.45-5.25-.45-5.25l-1.94-3.57zM418.9 110.7l-3.3-4.54s.46-1.54-1.8 2.52c-2.4 4.06-4.2 8.12-4.2 10.15-.14 2.03-1.2 6.16 2.56 10.22 3.6 4.06 3.9 4.2 3.9 4.2l2.55-5.4s-1.04-.34-1.34-2.37c-.15-2.03-1.05-2.24-.75-5.95.3-3.7.46-5.25.46-5.25l1.95-3.57z" fill="#fff"/><use xlink:href="#i" transform="matrix(1,0,0,1,269.0598687198103,158.80079369089617) translate(1.592881944444457 23.08376736111111)"/><use xlink:href="#q" transform="matrix(1,0,0,1,269.0598687198103,158.80079369089617) translate(96.93793402777779 23.08376736111111)"/><use xlink:href="#r" transform="matrix(1,0,0,1,269.0598687198103,158.80079369089617) translate(129.75043402777777 23.08376736111111)"/><path d="M-525.47-726.66h-.94v-274.98h.93zm0-295.98h-.94v-8.5h.93z" stroke="#3a414a" stroke-width=".05" fill="#3a414a"/><path d="M-525.47-726.12l-.85-.08h-.1v-.48h.95z" fill="#3a414a"/><path stroke="#3a414a" stroke-width=".05" fill="#3a414a"/><path d="M-521.3-1031.63h-9.28l4.64-14.27z" fill="#3a414a"/><path d="M-520.65-1031.15h-10.58l5.3-16.28zm-9.27-.95h7.96l-3.98-12.26z" stroke="#3a414a" stroke-width=".05" fill="#3a414a"/><path d="M-425.84-1098.7h283.52" stroke="#3a414a" fill="none"/><path d="M-425.83-1098.22h-.5v-.95h.5z" stroke="#3a414a" stroke-width=".05" fill="#3a414a"/><path d="M-127.56-1098.7l-14.26 4.64v-9.27z" stroke="#3a414a" fill="#3a414a"/><path d="M-.56-1098.7h319.4" stroke="#3a414a" fill="none"/><path d="M-.55-1098.22h-.5v-.95h.5z" stroke="#3a414a" stroke-width=".05" fill="#3a414a"/><path d="M333.6-1098.7l-14.27 4.64v-9.27z" stroke="#3a414a" fill="#3a414a"/><path d="M-62.97-735.08h-.95v-279.43h.95zm0-337.7h-.95v-2.96h.95z" stroke="#3a414a" stroke-width=".05" fill="#3a414a"/><path d="M-62.97-1075.73h-.95v-.5h.95zm0-3.44h-.95l.95-.07z" fill="#3a414a"/><path stroke="#3a414a" stroke-width=".05" fill="#3a414a"/><path d="M-63.44-720.32l-4.64-14.26h9.27z" fill="#3a414a"/><path d="M-63.44-718.78l-5.3-16.28h10.6zm-3.98-15.33l3.98 12.25 3.98-12.26z" stroke="#3a414a" stroke-width=".05" fill="#3a414a"/><path d="M410.52-1098.7h322.16" stroke="#3a414a" fill="none"/><path d="M410.53-1098.22h-.2l-.63-.95h.83z" stroke="#3a414a" stroke-width=".05" fill="#3a414a"/><path d="M747.44-1098.7l-14.26 4.64v-9.27z" stroke="#3a414a" fill="#3a414a"/><path d="M-23.1-653.7h345.78" stroke="#3a414a" fill="none"/><path d="M-25.84-653.22h-.76v-.95h.76zm2.75 0h-.5v-.95h.5z" stroke="#3a414a" stroke-width=".05" fill="#3a414a"/><path d="M337.44-653.7l-14.26 4.64v-9.27z" stroke="#3a414a" fill="#3a414a"/><path d="M789.53-882.18l-.07 1-.24.98-.4.94-.52.87-.66.78-.77.66-.87.53-.94.4-1 .23-.98.08h-403l-.88.07-.85.2-.8.33-.74.45-.65.56-.56.65-.46.74-.33.8-.2.84-.06.88v140.1h-.96v-140.14l.08-1 .24-.98.4-.94.52-.87.66-.78.77-.66.87-.53.94-.4 1-.23.98-.07h403l.88-.07.85-.2.8-.34.74-.45.67-.56.56-.65.45-.74.33-.8.22-.84.07-.88v-90.8h.93zm0-149.1h-.94v-1.92h.93z" stroke="#3a414a" stroke-width=".05" fill="#3a414a"/><path d="M789.53-1033.2h-.94v-.5h.93zm0-2.45h-.94v-1.05h.93z" fill="#3a414a"/><path stroke="#3a414a" stroke-width=".05" fill="#3a414a"/><path d="M374.06-715.32l-4.63-14.26h9.26z" fill="#3a414a"/><path d="M374.06-713.78l-5.3-16.28h10.6zm-3.98-15.33l3.98 12.25 3.98-12.26zM374.54-297.58h-.96v-207.3h.96zm0-293.83h-.96v-1.68h.96z" stroke="#3a414a" stroke-width=".05" fill="#3a414a"/><path d="M374.54-593.07h-.96v-.5h.96z" fill="#3a414a"/><path stroke="#3a414a" stroke-width=".05" fill="#3a414a"/><path d="M374.06-282.82l-4.63-14.26h9.26z" fill="#3a414a"/><path d="M374.06-281.28l-5.3-16.28h10.6zm-3.98-15.33l3.98 12.25 3.98-12.26zM594.07-654.1l1 .24.93.4.87.52.77.66.66.77.53.86.4.94.23 1 .07.98v765.54l-.07 1-.24.98-.4.94-.52.87-.66.78-.77.66-.87.53-.94.4-1 .23-.98.08H465.44v-.95h127.6l.88-.07.85-.2.8-.34.74-.45.67-.56.56-.65.45-.74.33-.8.22-.83.07-.9v-765.45l-.1-.88-.2-.85-.32-.8-.45-.75-.56-.65-.66-.57-.73-.45-.8-.33-.85-.2-.88-.07h-183.4v-.95h183.44z" stroke="#3a414a" stroke-width=".05" fill="#3a414a"/><path d="M409.64-653.22h-.5v-.95h.5z" fill="#3a414a"/><path stroke="#3a414a" stroke-width=".05" fill="#3a414a"/><path d="M464.94 128.44l-14.26-4.64 14.26-4.63z" fill="#3a414a"/><path d="M465.42 129.1l-16.28-5.3 16.28-5.3zm-13.2-5.3l12.25 3.98v-7.96zM374.54 72.42h-.96V-154.5h.96zm0-280.2h-.96v-3h.96z" stroke="#3a414a" stroke-width=".05" fill="#3a414a"/><path d="M374.54-210.76h-.96v-.5h.96zm0-3.38h-.96v-.13h.96z" fill="#3a414a"/><path stroke="#3a414a" stroke-width=".05" fill="#3a414a"/><path d="M374.06 87.18l-4.63-14.26h9.26z" fill="#3a414a"/><path d="M374.06 88.72l-5.3-16.28h10.6zm-3.98-15.33l3.98 12.25 3.98-12.26z" stroke="#3a414a" stroke-width=".05" fill="#3a414a"/><defs><path d="M659 0H135v-1490h529c448 0 721 280 721 744 0 466-273 746-726 746zM440-263h204c287 0 437-148 437-483 0-333-150-481-435-481H440v964" id="s"/><path d="M128 0v-1118h300V0H128zm150-1264c-91 0-165-68-165-154 0-85 74-154 165-154 90 0 165 69 165 154 0 86-75 154-165 154" id="t"/><path d="M440 22C227 22 68-92 68-313c0-250 202-322 422-343 195-21 271-24 271-105 0-95-63-149-175-149-116 0-187 57-211 129l-275-46c57-194 237-305 487-305 240 0 474 108 474 379V0H777v-155h-10C713-51 605 22 440 22zm85-211c140 0 238-93 238-211v-121c-37 26-156 42-222 51-111 16-185 59-185 149 0 87 70 132 169 132" id="u"/><path d="M625 442c-280 0-454-114-503-274l258-72c28 63 97 128 243 128 153 0 246-69 246-216v-206h-23C805-108 717-16 536-16 284-16 81-191 81-561c0-378 208-571 456-571 188 0 280 113 321 202h13v-188h295V-9c0 303-226 451-541 451zm5-686c153 0 240-119 240-319 0-198-86-329-240-329-158 0-241 137-241 329 0 195 85 319 241 319" id="v"/><path d="M128 0v-1118h290v195h12c54-169 184-238 367-200v268c-27-8-86-15-130-15-138 0-239 95-239 234V0H128" id="w"/><path d="M128 0v-1118h278l12 217c60-163 185-234 319-234 143 0 236 81 288 251 63-172 205-251 359-251 205 0 357 138 357 381V0h-301v-697c0-126-76-187-177-187-114 0-184 79-184 196V0H789v-705c0-109-72-179-174-179-106 0-187 74-187 208V0H128" id="x"/><g id="a"><use transform="matrix(0.010850694444444444,0,0,0.010850694444444444,0,0)" xlink:href="#s"/><use transform="matrix(0.010850694444444444,0,0,0.010850694444444444,16.048177083333332,0)" xlink:href="#t"/><use transform="matrix(0.010850694444444444,0,0,0.010850694444444444,22.0703125,0)" xlink:href="#u"/><use transform="matrix(0.010850694444444444,0,0,0.010850694444444444,34.97178819444444,0)" xlink:href="#v"/><use transform="matrix(0.010850694444444444,0,0,0.010850694444444444,49.01258680555556,0)" xlink:href="#w"/><use transform="matrix(0.010850694444444444,0,0,0.010850694444444444,57.75824652777778,0)" xlink:href="#u"/><use transform="matrix(0.010850694444444444,0,0,0.010850694444444444,70.65972222222223,0)" xlink:href="#x"/><use transform="matrix(0.010850694444444444,0,0,0.010850694444444444,90.93967013888889,0)" xlink:href="#u"/></g><path d="M537 19C279 19 81-185 81-557c0-382 206-575 454-575 190 0 278 113 318 202h10v-560h300V0H868v-179h-15C812-89 719 19 537 19zm92-241c153 0 240-134 240-336 0-203-86-334-240-334-158 0-240 138-240 334 0 197 84 336 240 336" id="y"/><path d="M633 22C291 22 81-200 81-553c0-345 210-579 537-579 292 0 525 185 525 567v84H378c7 183 109 277 260 277 105 0 184-46 216-132l272 51C1071-99 893 22 633 22zM380-669h474c-15-146-94-237-233-237-143 0-229 99-241 237" id="z"/><g id="b"><use transform="matrix(0.010850694444444444,0,0,0.010850694444444444,0,0)" xlink:href="#y"/><use transform="matrix(0.010850694444444444,0,0,0.010850694444444444,14.008246527777777,0)" xlink:href="#z"/></g><path d="M440-1490V0H135v-1490h305" id="A"/><path d="M128 418v-1536h295v188h14c41-89 129-202 319-202 248 0 453 193 453 575 0 372-197 576-455 576-183 0-275-108-317-198h-9v597H128zm534-640c156 0 240-139 240-336 0-196-83-334-240-334-154 0-241 131-241 334 0 202 88 336 241 336" id="B"/><path d="M428-1490V0H128v-1490h300" id="C"/><path d="M428-647V0H128v-1118h283l4 231c63-156 176-245 348-245 232 0 384 159 384 421V0H847v-659c0-139-76-222-202-222-128 0-217 86-217 234" id="D"/><path d="M683-1118v229H474v562c0 71 29 104 102 104 23 0 73-7 95-13l43 225C647 9 580 16 520 16 296 16 174-96 174-301v-588H20v-229h154v-266h300v266h209" id="E"/><path d="M499 418V299c80-5 216 24 216-62 0-44-25-60-89-60h-91l26-158C264-10 81-233 81-554c0-346 210-578 547-578 265 0 455 142 497 372l-279 52c-25-116-99-188-215-188-160 0-244 139-244 341 0 200 84 341 244 341 116 0 193-74 217-195l279 51C1088-140 923 0 685 20l-4 68c126-6 197 51 197 157 0 123-72 173-239 173H499" id="F"/><path d="M440 22C227 22 68-92 68-313c0-250 202-322 422-343 195-21 271-24 271-105 0-95-63-149-175-149-116 0-187 57-211 129l-275-46c57-194 237-305 487-305 240 0 474 108 474 379V0H777v-155h-10C713-51 605 22 440 22zm290-1304c-128 0-195-103-258-103-42 0-63 39-65 97H242c4-169 84-265 208-265 129 0 189 103 257 103 45 0 63-33 68-97h162c-3 169-89 265-207 265zM525-189c140 0 238-93 238-211v-121c-37 26-156 42-222 51-111 16-185 59-185 149 0 87 70 132 169 132" id="G"/><path d="M628 22C291 22 81-210 81-554c0-346 210-578 547-578 336 0 547 232 547 578 0 344-211 576-547 576zm0-236c160 0 242-146 242-341 0-197-82-341-242-341S387-753 387-555c0 195 81 341 241 341" id="H"/><g id="c"><use transform="matrix(0.010850694444444444,0,0,0.010850694444444444,0,0)" xlink:href="#A"/><use transform="matrix(0.010850694444444444,0,0,0.010850694444444444,6.239149305555555,0)" xlink:href="#x"/><use transform="matrix(0.010850694444444444,0,0,0.010850694444444444,26.51909722222222,0)" xlink:href="#B"/><use transform="matrix(0.010850694444444444,0,0,0.010850694444444444,40.52734375,0)" xlink:href="#C"/><use transform="matrix(0.010850694444444444,0,0,0.010850694444444444,46.549479166666664,0)" xlink:href="#z"/><use transform="matrix(0.010850694444444444,0,0,0.010850694444444444,59.787326388888886,0)" xlink:href="#x"/><use transform="matrix(0.010850694444444444,0,0,0.010850694444444444,80.06727430555554,0)" xlink:href="#z"/><use transform="matrix(0.010850694444444444,0,0,0.010850694444444444,93.30512152777777,0)" xlink:href="#D"/><use transform="matrix(0.010850694444444444,0,0,0.010850694444444444,107.13975694444444,0)" xlink:href="#E"/><use transform="matrix(0.010850694444444444,0,0,0.010850694444444444,115.38628472222221,0)" xlink:href="#u"/><use transform="matrix(0.010850694444444444,0,0,0.010850694444444444,128.28776041666666,0)" xlink:href="#F"/><use transform="matrix(0.010850694444444444,0,0,0.010850694444444444,141.5798611111111,0)" xlink:href="#G"/><use transform="matrix(0.010850694444444444,0,0,0.010850694444444444,154.48133680555554,0)" xlink:href="#H"/></g><path d="M783 20c-382 0-661-292-661-764 0-473 279-766 661-766 302 0 548 182 601 489h-190c-42-204-217-313-411-313-268 0-476 208-476 590 0 381 209 588 476 588 195 0 369-110 411-313h190c-52 303-296 489-601 489" id="I"/><path d="M338-1490V0H158v-1490h180" id="J"/><path d="M158 0v-1118h180V0H158zm91-1301c-68 0-125-53-125-119s57-119 125-119c69 0 126 53 126 119s-57 119-126 119" id="K"/><path d="M628 24c-324 0-524-230-524-574 0-343 198-582 503-582 237 0 487 146 487 559v75H286c9 234 145 362 343 362 132 0 231-58 273-172l174 48C1024-91 857 24 628 24zM287-650h624c-17-190-120-322-304-322-192 0-309 151-320 322" id="L"/><path d="M338-670V0H158v-1118h173l1 207c72-158 192-221 342-221 226 0 378 139 378 422V0H872v-695c0-172-96-275-252-275-161 0-282 109-282 300" id="M"/><path d="M598-1118v154H368v674c0 100 37 144 132 144 23 0 62-6 92-12L629-6c-37 13-88 20-134 20-193 0-307-107-307-290v-688H20v-154h168v-266h180v266h230" id="N"/><g id="d"><use transform="matrix(0.010850694444444444,0,0,0.010850694444444444,0,0)" xlink:href="#I"/><use transform="matrix(0.010850694444444444,0,0,0.010850694444444444,16.23263888888889,0)" xlink:href="#J"/><use transform="matrix(0.010850694444444444,0,0,0.010850694444444444,21.614583333333336,0)" xlink:href="#K"/><use transform="matrix(0.010850694444444444,0,0,0.010850694444444444,26.99652777777778,0)" xlink:href="#L"/><use transform="matrix(0.010850694444444444,0,0,0.010850694444444444,39.95225694444444,0)" xlink:href="#M"/><use transform="matrix(0.010850694444444444,0,0,0.010850694444444444,53.08159722222222,0)" xlink:href="#N"/><use transform="matrix(0.010850694444444444,0,0,0.010850694444444444,60.13454861111112,0)" xlink:href="#L"/></g><path d="M180 0v-1490h901v168H370v510h643v168H370V0H180" id="O"/><path d="M158 0v-1118h174v172h12c41-113 157-188 290-188 26 0 70 2 91 3v181c-11-2-60-10-108-10-161 0-279 109-279 260V0H158" id="P"/><path d="M409 0L70-1118h191c89 329 165 560 243 925 75-353 154-601 240-925h192c85 325 161 564 235 922 77-354 157-598 244-922h191L1267 0h-179c-86-307-176-590-250-913C763-588 675-308 588 0H409" id="Q"/><path d="M471 26C259 26 90-98 90-318c0-256 228-303 435-329 202-27 287-16 287-108 0-139-79-219-234-219-161 0-248 86-283 164l-173-57c86-203 278-265 451-265 150 0 419 46 419 395V0H815v-152h-12C765-73 660 26 471 26zm31-159c199 0 310-134 310-271v-155c-30 35-226 55-295 64-131 17-246 59-246 186 0 116 97 176 231 176" id="R"/><g id="e"><use transform="matrix(0.010850694444444444,0,0,0.010850694444444444,0,0)" xlink:href="#O"/><use transform="matrix(0.010850694444444444,0,0,0.010850694444444444,13.118489583333332,0)" xlink:href="#K"/><use transform="matrix(0.010850694444444444,0,0,0.010850694444444444,18.50043402777778,0)" xlink:href="#P"/><use transform="matrix(0.010850694444444444,0,0,0.010850694444444444,26.497395833333336,0)" xlink:href="#L"/><use transform="matrix(0.010850694444444444,0,0,0.010850694444444444,39.05164930555556,0)" xlink:href="#Q"/><use transform="matrix(0.010850694444444444,0,0,0.010850694444444444,57.23741319444444,0)" xlink:href="#R"/><use transform="matrix(0.010850694444444444,0,0,0.010850694444444444,69.71571180555556,0)" xlink:href="#J"/><use transform="matrix(0.010850694444444444,0,0,0.010850694444444444,75.09765625,0)" xlink:href="#J"/></g><path d="M180 0v-1490h528c311 0 458 177 458 395 0 191-114 278-244 313v14c139 9 302 137 302 371 0 225-148 397-499 397H180zm190-168h350c232 0 321-102 321-231 0-149-120-277-311-277H370v508zm0-668h328c160 0 286-101 286-255 0-129-87-231-280-231H370v486" id="S"/><path d="M613 24c-304 0-509-231-509-576 0-350 205-580 509-580 216 0 392 114 453 309l-173 49c-33-115-133-197-280-197-223 0-326 196-326 419 0 220 103 415 326 415 150 0 252-85 285-206l172 49C1010-95 832 24 613 24" id="T"/><path d="M577 24c-279 0-473-224-473-580 0-354 195-576 474-576 218 0 287 134 324 193h14v-551h180V0H922v-173h-20C865-111 790 24 577 24zm27-161c203 0 314-172 314-421 0-247-108-413-314-413-212 0-317 181-317 413 0 235 108 421 317 421" id="U"/><path d="M613 24c-304 0-509-231-509-576 0-350 205-580 509-580 305 0 511 230 511 580 0 345-206 576-511 576zm0-161c226 0 329-195 329-415 0-222-103-419-329-419-223 0-326 196-326 419 0 220 103 415 326 415" id="V"/><g id="f"><use transform="matrix(0.010850694444444444,0,0,0.010850694444444444,0,0)" xlink:href="#S"/><use transform="matrix(0.010850694444444444,0,0,0.010850694444444444,14.539930555555555,0)" xlink:href="#R"/><use transform="matrix(0.010850694444444444,0,0,0.010850694444444444,27.018229166666664,0)" xlink:href="#J"/><use transform="matrix(0.010850694444444444,0,0,0.010850694444444444,32.40017361111111,0)" xlink:href="#R"/><use transform="matrix(0.010850694444444444,0,0,0.010850694444444444,44.87847222222221,0)" xlink:href="#M"/><use transform="matrix(0.010850694444444444,0,0,0.010850694444444444,58.007812499999986,0)" xlink:href="#T"/><use transform="matrix(0.010850694444444444,0,0,0.010850694444444444,70.703125,0)" xlink:href="#L"/><use transform="matrix(0.010850694444444444,0,0,0.010850694444444444,83.87586805555556,0)" xlink:href="#R"/><use transform="matrix(0.010850694444444444,0,0,0.010850694444444444,96.35416666666666,0)" xlink:href="#U"/><use transform="matrix(0.010850694444444444,0,0,0.010850694444444444,109.9609375,0)" xlink:href="#V"/><use transform="matrix(0.010850694444444444,0,0,0.010850694444444444,123.28559027777777,0)" xlink:href="#P"/></g><g id="g"><use transform="matrix(0.010850694444444444,0,0,0.010850694444444444,0,0)" xlink:href="#U"/><use transform="matrix(0.010850694444444444,0,0,0.010850694444444444,13.606770833333332,0)" xlink:href="#L"/></g><path d="M611 442c-248 0-391-105-460-228l146-94c47 65 117 165 314 165 178 0 307-82 307-266v-224h-17C863-141 792-18 576-18c-268 0-472-195-472-546 0-346 197-568 476-568 216 0 288 133 326 193h17v-179h175V29c0 289-215 413-487 413zm-5-620c203 0 314-146 314-390 0-237-108-403-314-403-213 0-319 180-319 403 0 230 109 390 319 390" id="W"/><g id="h"><use transform="matrix(0.010850694444444444,0,0,0.010850694444444444,0,0)" xlink:href="#I"/><use transform="matrix(0.010850694444444444,0,0,0.010850694444444444,16.23263888888889,0)" xlink:href="#R"/><use transform="matrix(0.010850694444444444,0,0,0.010850694444444444,28.7109375,0)" xlink:href="#P"/><use transform="matrix(0.010850694444444444,0,0,0.010850694444444444,36.70789930555556,0)" xlink:href="#W"/><use transform="matrix(0.010850694444444444,0,0,0.010850694444444444,50.33637152777778,0)" xlink:href="#R"/></g><path d="M657 26c-323 0-524-166-541-416h195c15 169 171 246 346 246 202 0 356-106 356-265 5-203-294-238-475-293-239-73-380-191-380-389 0-252 224-419 512-419 294 0 499 171 508 396H992c-17-145-151-228-328-228-193 0-321 102-321 242 0 156 175 211 284 241l149 41c160 44 422 134 422 412 0 244-197 432-541 432" id="X"/><path d="M481 0L54-1118h197c107 314 236 620 325 951 87-331 217-637 324-951h197L670 0H481" id="Y"/><g id="i"><use transform="matrix(0.010850694444444444,0,0,0.010850694444444444,0,0)" xlink:href="#X"/><use transform="matrix(0.010850694444444444,0,0,0.010850694444444444,14.2578125,0)" xlink:href="#L"/><use transform="matrix(0.010850694444444444,0,0,0.010850694444444444,27.213541666666664,0)" xlink:href="#P"/><use transform="matrix(0.010850694444444444,0,0,0.010850694444444444,35.92664930555555,0)" xlink:href="#Y"/><use transform="matrix(0.010850694444444444,0,0,0.010850694444444444,48.41579861111111,0)" xlink:href="#K"/><use transform="matrix(0.010850694444444444,0,0,0.010850694444444444,53.79774305555556,0)" xlink:href="#U"/><use transform="matrix(0.010850694444444444,0,0,0.010850694444444444,67.40451388888889,0)" xlink:href="#V"/><use transform="matrix(0.010850694444444444,0,0,0.010850694444444444,80.72916666666666,0)" xlink:href="#P"/></g><path d="M458 0L52-1490h194c108 439 233 855 324 1313 92-459 221-873 331-1313h216c110 438 234 854 330 1307 92-455 216-869 323-1307h196L1558 0h-221l-256-944c-26-95-50-200-73-331-22 122-44 223-73 331L680 0H458" id="Z"/><path d="M677 24c-213 0-288-135-325-197h-20V0H158v-1490h180v551h14c37-59 106-193 324-193 279 0 474 222 474 576 0 356-194 580-473 580zm-27-161c209 0 317-186 317-421 0-232-105-413-317-413-206 0-314 166-314 413 0 249 111 421 314 421" id="aa"/><g id="j"><use transform="matrix(0.010850694444444444,0,0,0.010850694444444444,0,0)" xlink:href="#Z"/><use transform="matrix(0.010850694444444444,0,0,0.010850694444444444,20.768229166666668,0)" xlink:href="#L"/><use transform="matrix(0.010850694444444444,0,0,0.010850694444444444,33.723958333333336,0)" xlink:href="#aa"/></g><path d="M52 0l541-1490h220L1361 0h-200l-149-416H398L254 0H52zm404-582h497c-103-290-145-390-251-756-108 377-145 460-246 756" id="ab"/><path d="M158 418v-1536h174v179h20c37-59 106-193 324-193 279 0 474 222 474 576 0 356-194 580-473 580-213 0-288-135-325-197h-14v591H158zm492-555c209 0 317-186 317-421 0-232-105-413-317-413-206 0-314 166-314 413 0 249 111 421 314 421" id="ac"/><path d="M502 418V313h118c73 0 98-17 98-66s-25-65-98-65h-82l21-161C285-4 104-228 104-552c0-350 205-580 509-580 216 0 392 114 453 309l-173 49c-33-115-133-197-280-197-223 0-326 196-326 419 0 220 103 415 326 415 150 0 252-85 285-206l172 49C1015-110 859 5 663 22v64c130 5 189 54 189 162 0 118-71 170-231 170H502" id="ad"/><path d="M471 26C259 26 90-98 90-318c0-256 228-303 435-329 202-27 287-16 287-108 0-139-79-219-234-219-161 0-248 86-283 164l-173-57c86-203 278-265 451-265 150 0 419 46 419 395V0H815v-152h-12C765-73 660 26 471 26zm31-159c199 0 310-134 310-271v-155c-30 35-226 55-295 64-131 17-246 59-246 186 0 116 97 176 231 176zm187-1180c-99 0-192-83-243-83-35 0-51 40-53 79H267c4-120 55-208 162-208 104 0 174 85 241 85 33 0 49-23 56-81h123c-4 126-62 208-160 208" id="ae"/><g id="k"><use transform="matrix(0.010850694444444444,0,0,0.010850694444444444,0,0)" xlink:href="#ab"/><use transform="matrix(0.010850694444444444,0,0,0.010850694444444444,15.33203125,0)" xlink:href="#ac"/><use transform="matrix(0.010850694444444444,0,0,0.010850694444444444,28.938802083333332,0)" xlink:href="#J"/><use transform="matrix(0.010850694444444444,0,0,0.010850694444444444,34.32074652777778,0)" xlink:href="#K"/><use transform="matrix(0.010850694444444444,0,0,0.010850694444444444,39.70269097222222,0)" xlink:href="#T"/><use transform="matrix(0.010850694444444444,0,0,0.010850694444444444,52.61501736111111,0)" xlink:href="#R"/><use transform="matrix(0.010850694444444444,0,0,0.010850694444444444,65.09331597222221,0)" xlink:href="#ad"/><use transform="matrix(0.010850694444444444,0,0,0.010850694444444444,78.0056423611111,0)" xlink:href="#ae"/><use transform="matrix(0.010850694444444444,0,0,0.010850694444444444,90.48394097222221,0)" xlink:href="#V"/></g><g id="l"><use transform="matrix(0.010850694444444444,0,0,0.010850694444444444,0,0)" xlink:href="#S"/><use transform="matrix(0.010850694444444444,0,0,0.010850694444444444,14.539930555555555,0)" xlink:href="#R"/><use transform="matrix(0.010850694444444444,0,0,0.010850694444444444,27.018229166666664,0)" xlink:href="#M"/><use transform="matrix(0.010850694444444444,0,0,0.010850694444444444,40.14756944444444,0)" xlink:href="#T"/><use transform="matrix(0.010850694444444444,0,0,0.010850694444444444,52.84288194444444,0)" xlink:href="#V"/></g><path d="M645 0H180v-1490h484c435 0 692 280 692 742 0 466-257 748-711 748zM370-168h263c363 0 539-218 539-580 0-358-176-574-521-574H370v1154" id="af"/><path d="M538 24C308 24 148-78 108-271l171-41c32 123 123 178 257 178 156 0 256-77 256-169 0-77-54-128-164-154l-186-44c-203-48-300-148-300-305 0-192 176-326 414-326 230 0 351 112 402 269l-163 42c-31-80-94-158-238-158-133 0-233 69-233 162 0 83 57 129 188 160l169 40c203 48 298 149 298 302 0 196-179 339-441 339" id="ag"/><g id="m"><use transform="matrix(0.010850694444444444,0,0,0.010850694444444444,0,0)" xlink:href="#af"/><use transform="matrix(0.010850694444444444,0,0,0.010850694444444444,16.03732638888889,0)" xlink:href="#R"/><use transform="matrix(0.010850694444444444,0,0,0.010850694444444444,28.515625,0)" xlink:href="#U"/><use transform="matrix(0.010850694444444444,0,0,0.010850694444444444,42.12239583333333,0)" xlink:href="#V"/><use transform="matrix(0.010850694444444444,0,0,0.010850694444444444,55.44704861111111,0)" xlink:href="#ag"/></g><path d="M158 0v-1118h175l1 205c55-151 181-225 313-225 147 0 245 90 285 228 53-141 190-228 352-228 194 0 352 125 352 384V0h-181v-749c0-161-105-225-225-225-151 0-243 103-243 244V0H807v-767c0-124-93-207-219-207-131 0-250 92-250 270V0H158" id="ah"/><g id="n"><use transform="matrix(0.010850694444444444,0,0,0.010850694444444444,0,0)" xlink:href="#X"/><use transform="matrix(0.010850694444444444,0,0,0.010850694444444444,14.2578125,0)" xlink:href="#R"/><use transform="matrix(0.010850694444444444,0,0,0.010850694444444444,26.73611111111111,0)" xlink:href="#J"/><use transform="matrix(0.010850694444444444,0,0,0.010850694444444444,32.2265625,0)" xlink:href="#Y"/><use transform="matrix(0.010850694444444444,0,0,0.010850694444444444,44.60720486111111,0)" xlink:href="#R"/><use transform="matrix(0.010850694444444444,0,0,0.010850694444444444,57.08550347222223,0)" xlink:href="#ah"/><use transform="matrix(0.010850694444444444,0,0,0.010850694444444444,76.55164930555556,0)" xlink:href="#L"/><use transform="matrix(0.010850694444444444,0,0,0.010850694444444444,89.50737847222221,0)" xlink:href="#M"/><use transform="matrix(0.010850694444444444,0,0,0.010850694444444444,102.63671875,0)" xlink:href="#N"/><use transform="matrix(0.010850694444444444,0,0,0.010850694444444444,109.68967013888889,0)" xlink:href="#V"/></g><g id="o"><use transform="matrix(0.010850694444444444,0,0,0.010850694444444444,0,0)" xlink:href="#M"/><use transform="matrix(0.010850694444444444,0,0,0.010850694444444444,13.129340277777777,0)" xlink:href="#R"/></g><path d="M180 0v-1490h224l606 953c40 63 108 177 176 312-27-437-7-821-13-1265h190V0h-226C860-448 622-778 356-1262c27 476 11 792 15 1262H180" id="ai"/><path d="M537 14c-226 0-379-139-379-422v-710h180v695c0 172 97 275 253 275 160 0 281-109 281-300v-670h181V0H879v-209C806-46 684 14 537 14" id="aj"/><g id="p"><use transform="matrix(0.010850694444444444,0,0,0.010850694444444444,0,0)" xlink:href="#ai"/><use transform="matrix(0.010850694444444444,0,0,0.010850694444444444,16.74262152777778,0)" xlink:href="#aj"/><use transform="matrix(0.010850694444444444,0,0,0.010850694444444444,29.8828125,0)" xlink:href="#Y"/><use transform="matrix(0.010850694444444444,0,0,0.010850694444444444,41.93793402777778,0)" xlink:href="#L"/><use transform="matrix(0.010850694444444444,0,0,0.010850694444444444,54.89366319444444,0)" xlink:href="#ah"/></g><g id="q"><use transform="matrix(0.010850694444444444,0,0,0.010850694444444444,0,0)" xlink:href="#U"/><use transform="matrix(0.010850694444444444,0,0,0.010850694444444444,13.606770833333332,0)" xlink:href="#L"/></g><path d="M158 0v-1490h180v865h22l478-493h223L593-638 1096 0H865L456-523 338-412V0H158" id="ak"/><g id="r"><use transform="matrix(0.010850694444444444,0,0,0.010850694444444444,0,0)" xlink:href="#S"/><use transform="matrix(0.010850694444444444,0,0,0.010850694444444444,14.539930555555555,0)" xlink:href="#R"/><use transform="matrix(0.010850694444444444,0,0,0.010850694444444444,27.018229166666664,0)" xlink:href="#T"/><use transform="matrix(0.010850694444444444,0,0,0.010850694444444444,39.713541666666664,0)" xlink:href="#ak"/><use transform="matrix(0.010850694444444444,0,0,0.010850694444444444,51.90972222222222,0)" xlink:href="#aj"/><use transform="matrix(0.010850694444444444,0,0,0.010850694444444444,65.04991319444444,0)" xlink:href="#ac"/></g></defs></g></svg>
